<?xml version="1.0" encoding="utf-8"?>
<!-- Generator: Adobe Illustrator 15.0.0, SVG Export Plug-In . SVG Version: 6.00 Build 0)  -->
<!DOCTYPE svg PUBLIC "-//W3C//DTD SVG 1.1//EN" "http://www.w3.org/Graphics/SVG/1.1/DTD/svg11.dtd">
<svg version="1.1" id="Layer_1" xmlns="http://www.w3.org/2000/svg" xmlns:xlink="http://www.w3.org/1999/xlink" x="0px" y="0px"
	 width="119px" height="180px" viewBox="0 0 119 180" enable-background="new 0 0 119 180" xml:space="preserve">
<g>
	<g>
		<path fill="#FFFFFF" d="M9.782,167.492c-3.801,0-5.948-3.803-5.948-9.537c0-6.105,3.895-13.59,9.998-13.59
			c2.209,0,3.895,1.439,3.895,3.803c0,3.346-3.711,6.195-6.377,6.195c-0.736,0-1.351-0.461-1.351-1.473
			c0-0.429,0.121-1.104,0.337-1.104c0.215,0,0.277,0.309,1.166,0.309c1.563,0,3.804-1.812,3.804-3.771
			c0-0.707-0.46-1.719-1.872-1.719c-3.834,0-7.055,5.949-7.055,11.318c0,4.415,1.503,7.176,3.465,7.176
			c3.129,0,4.724-4.231,4.724-6.746c0-0.31-0.061-0.801-0.061-1.015c0-0.582,0.461-0.612,0.98-0.612c0.554,0,1.597,0.49,1.597,1.166
			c-0.154,1.654-0.185,3.096-0.185,4.631c0,1.439,0.031,2.945,0.031,4.816c0.583-0.094,1.134-0.125,1.626-0.152
			c1.442-0.094,0.675,2.391-0.398,2.422c-0.46,0-0.859,0.031-1.29,0.062c-0.152,3.437-0.888,7.453-4.476,7.453
			c-2.087,0-3.436-1.565-3.436-3.619c0-3.127,2.792-4.784,5.643-5.646v-0.305c0-1.318-0.061-2.33-0.061-3.068
			C13.248,166.389,11.654,167.492,9.782,167.492z M14.507,170.131c-2.024,0.645-3.158,1.776-3.158,3.311
			c0,0.922,0.49,1.32,1.103,1.32C13.832,174.762,14.353,172.583,14.507,170.131z"/>
		<path fill="#FFFFFF" d="M22.511,163.627c0-1.963,0.551-4.143,1.533-6.777h-2.331h-0.337c-0.031,1.194-0.215,3.865-0.767,5.643
			c-0.4,1.289-1.993,0.184-1.718-0.858c0.337-1.226,0.46-3.771,0.492-5.337c-0.767-0.43-1.321-1.072-1.321-1.964
			c0-0.858,0.736-1.409,1.534-1.409c0.736,0,1.596,0.37,1.932,1.624c1.013,0.124,1.319,0.124,1.625,0.124h1.595
			c0.369,0,1.597,1.012,1.472,1.719c0,0.367-1.38,3.986-1.38,7.055c0,0.859,0.398,1.654,1.228,1.654c1.41,0,1.933-1.963,2.209-3.311
			c0.121-0.645,0.429-0.921,0.736-0.921c0.49,0,1.074,0.675,1.074,1.257c0,0.094-0.031,0.152-0.031,0.215
			c-0.552,2.026-1.747,4.783-4.386,4.783C24.227,167.122,22.511,166.325,22.511,163.627z"/>
		<path fill="#FFFFFF" d="M30.911,163.198c0.429,1.042,1.258,1.899,2.854,1.899c2.393,0,3.375-1.994,3.744-3.863
			c0.274-1.379,1.992-0.768,1.87,0.308c-0.216,1.871-1.442,5.58-5.951,5.58c-2.792,0-5.428-2.237-5.428-6.071
			c0-3.896,2.333-6.809,4.692-6.809c1.718,0,2.76,1.257,2.76,3.097C35.451,159.609,33.889,162.309,30.911,163.198z M30.544,161.512
			c1.532-0.707,2.515-2.304,2.515-4.142c0-0.677-0.243-1.074-0.645-1.074c-1.503,0-1.962,3.373-1.901,4.661
			C30.513,161.145,30.544,161.328,30.544,161.512z"/>
		<path fill="#FFFFFF" d="M48.241,161.788c0.122-0.646,0.43-0.921,0.736-0.921c0.49,0,1.074,0.675,1.074,1.257
			c0,0.03,0,0.094-0.031,0.215c-0.523,2.026-1.748,4.783-4.384,4.783c-1.074,0-1.903-0.521-2.364-1.254
			c-0.613,0.702-1.472,1.254-2.637,1.254c-2.393,0-3.651-2.022-3.651-4.631c0-5.121,3.558-8.249,7.301-8.249
			c0.828,0,1.412,0.49,1.412,1.287c0,0.521-0.092,0.707-0.398,0.707c-0.277,0-0.583-0.062-0.892-0.062
			c-2.329,0-5.06,1.992-5.06,6.411c0,1.593,0.675,2.515,1.749,2.515c0.828,0,1.38-0.733,1.718-1.598v-4.72
			c0-0.585-0.124-0.771-0.124-0.983c0-0.306,0.368-0.52,0.8-0.52c1.009,0,1.654,0.613,1.654,1.347v5.063
			c0,0.676,0.308,1.408,1.044,1.408C47.413,165.1,47.964,163.137,48.241,161.788z"/>
		<path fill="#FFFFFF" d="M47.749,151.941v-5.185c0-0.89-0.308-0.952-0.308-1.167c0-0.214,0.55-0.336,0.983-0.336
			c1.01,0,1.654,0.613,1.654,1.352v5.363c1.87,0,4.018-0.027,6.104-0.119c0.86-0.922,0.583,2.021-0.213,2.053
			c-2.454,0.062-4.263,0.062-5.891,0.062v9.725c0,0.98,0.398,1.41,1.044,1.41c1.228,0,1.778-1.963,2.055-3.312
			c0.121-0.646,0.428-0.921,0.736-0.921c0.49,0,1.073,0.675,1.073,1.257c0,0.03,0,0.094-0.031,0.215
			c-0.523,2.026-1.749,4.783-4.386,4.783c-1.657,0-2.821-0.978-2.821-3.401v-9.756c-1.351,0-2.118-0.062-2.118-0.062
			c-0.981,0-1.534-2.053-0.644-2.053C44.987,151.85,46.092,151.911,47.749,151.941z"/>
		<path fill="#FFFFFF" d="M65.105,150.193c0-0.586-0.123-0.77-0.123-0.983c0-0.306,0.369-0.521,0.797-0.521
			c1.014,0,1.719,0.613,1.719,1.348v11.38c0,2.948,0.98,4.11,2.79,4.11c1.719,0,3.008-1.351,3.008-3.127
			c0-2.76-2.116-3.59-4.049-3.59c-0.554,0-1.073-2.302-0.153-2.302c1.44,0,4.969-0.948,4.969-5.397c0-2.33-1.502-4.725-5.274-4.725
			c-4.938,0-6.933,3.252-6.933,6.996c0,2.697,1.104,3.649,1.164,3.739c0.338-0.09,0.461,0.125,0.461,0.43
			c0,0.554-0.828,2.576-1.717,1.905c-0.492-0.462-2.241-2.305-2.241-5.893c0-5.733,3.772-9.479,9.233-9.479
			c4.633,0,7.669,2.607,7.669,6.961c0,3.346-1.719,5.403-3.957,6.598c1.78,0.521,3.222,2.055,3.222,4.692
			c0,3.067-2.332,5.306-5.367,5.306c-4.021,0-5.217-2.545-5.217-6.315V150.193L65.105,150.193z"/>
		<path fill="#FFFFFF" d="M80.777,163.627c0-1.963,0.552-4.143,1.531-6.777h-2.33h-0.338c-0.031,1.194-0.214,3.865-0.767,5.643
			c-0.397,1.289-1.993,0.184-1.717-0.858c0.335-1.226,0.46-3.771,0.491-5.337c-0.769-0.43-1.319-1.072-1.319-1.964
			c0-0.858,0.735-1.409,1.532-1.409c0.736,0,1.597,0.37,1.935,1.624c1.011,0.124,1.317,0.124,1.623,0.124h1.597
			c0.367,0,1.594,1.012,1.473,1.719c0,0.367-1.381,3.986-1.381,7.055c0,0.859,0.399,1.654,1.229,1.654
			c1.411,0,1.932-1.963,2.208-3.311c0.121-0.645,0.431-0.921,0.735-0.921c0.49,0,1.074,0.675,1.074,1.257
			c0,0.094-0.031,0.152-0.031,0.215c-0.553,2.026-1.749,4.783-4.389,4.783C82.494,167.122,80.777,166.325,80.777,163.627z"/>
		<path fill="#FFFFFF" d="M97.398,161.788c0.123-0.646,0.433-0.921,0.736-0.921c0.491,0,1.073,0.675,1.073,1.257
			c0,0.03,0,0.094-0.031,0.215c-0.521,2.026-1.747,4.783-4.386,4.783c-1.074,0-1.898-0.521-2.361-1.254
			c-0.611,0.702-1.473,1.254-2.638,1.254c-2.394,0-3.649-2.022-3.649-4.631c0-5.121,3.559-8.249,7.301-8.249
			c0.828,0,1.41,0.49,1.41,1.287c0,0.521-0.092,0.707-0.399,0.707c-0.274,0-0.583-0.062-0.888-0.062
			c-2.334,0-5.062,1.992-5.062,6.411c0,1.593,0.676,2.515,1.747,2.515c0.83,0,1.383-0.733,1.722-1.598v-4.72
			c0-0.585-0.125-0.771-0.125-0.983c0-0.306,0.369-0.52,0.799-0.52c1.012,0,1.655,0.613,1.655,1.347v5.063
			c0,0.676,0.308,1.408,1.044,1.408C96.572,165.1,97.124,163.137,97.398,161.788z"/>
		<path fill="#FFFFFF" d="M97.305,149.641c0-1.074,0.828-1.871,1.84-1.871c1.074,0,1.871,0.797,1.871,1.871
			c0,1.01-0.797,1.873-1.871,1.873C98.133,151.514,97.305,150.65,97.305,149.641z M99.852,163.689c0,0.272,0,1.408,0.797,1.408
			c1.227,0,1.778-1.963,2.057-3.311c0.367-1.873,2.021-0.434,1.777,0.551c-0.553,2.025-1.746,4.783-4.387,4.783
			c-1.625,0-2.576-1.316-2.576-2.883v-8.189c0-0.582-0.123-0.766-0.123-0.98c0-0.305,0.369-0.521,0.799-0.521
			c1.012,0,1.656,0.616,1.656,1.352V163.689L99.852,163.689z"/>
		<path fill="#FFFFFF" d="M102.825,156.05c0-0.582-0.123-0.766-0.123-0.979c0-0.305,0.366-0.522,0.798-0.522
			c1.012,0,1.656,0.616,1.656,1.351v1.383c0.828-1.719,1.934-3.037,3.436-3.037c2.055,0,2.545,1.688,2.545,3.097v6.351
			c0,0.273,0,1.41,0.799,1.41c1.229,0,1.778-1.963,2.056-3.312c0.12-0.646,0.428-0.921,0.735-0.921c0.49,0,1.073,0.675,1.073,1.257
			c0,0.031,0,0.095-0.03,0.215c-0.521,2.026-1.748,4.783-4.388,4.783c-1.625,0-2.573-1.315-2.573-2.882v-6.229
			c0-0.947-0.063-1.748-0.646-1.748c-0.891,0-2.792,2.641-3.006,5.063v4.478c0,0.582,0.029,1.316-0.858,1.316
			c-0.612,0-1.473-0.212-1.473-1.348V156.05L102.825,156.05z"/>
	</g>
</g>
<g>
	<path fill="#FFFFFF" d="M43.235,8.886c0,0.666,0.358,1.295,0.93,1.64l0.085,0.071c0.178,0.199,0.383,0.362,0.559,0.498
		c0.389,0.295,0.608,0.48,0.608,0.834s-0.208,0.53-0.612,0.837c-0.437,0.334-0.982,0.752-0.982,1.599c0,0.848,0.593,1.301,0.985,1.6
		c0.172,0.132,0.297,0.234,0.381,0.32l0.453,0.465l-0.635,0.143c-0.492,0.111-0.864,0.518-0.926,1.012l-0.378,2.966
		c-0.045,0.343,0.061,0.687,0.288,0.942c0.227,0.261,0.556,0.409,0.901,0.409h2.06c0.345,0,0.672-0.148,0.898-0.406
		c0.23-0.259,0.334-0.603,0.291-0.944l-0.378-2.967c-0.068-0.552-0.523-0.988-1.077-1.04L46.4,16.839l-0.041-0.285
		c-0.1-0.697-0.619-1.094-0.961-1.356c-0.4-0.305-0.61-0.481-0.61-0.833c0-0.352,0.21-0.529,0.608-0.834
		c0.37-0.282,0.924-0.706,0.983-1.464l0.039-0.514l2.952,1.318v6.144l0.033,0.167c0.34,3.746,8.44,4.036,10.914,4.036
		c2.476,0,10.572-0.291,10.916-4.036l0.031-0.332v-6.11l4.721-2.104c0.688-0.307,1.136-0.993,1.136-1.748
		c0-0.755-0.446-1.442-1.136-1.751L60.959,0.434c-0.495-0.222-1.067-0.222-1.562,0L44.37,7.138
		C43.68,7.446,43.235,8.132,43.235,8.886z M46.781,17.822l0.439,3.435h-2.592l0.437-3.435H46.781z M60.316,21.535
		c-5.281,0-9.266-1.118-9.266-2.602c0.002-0.209,0.04-0.344,0.112-0.488l0.174-0.337l0.33,0.187C53.543,19.363,56.792,20,60.357,20
		c0.813,0,1.629-0.035,2.416-0.101c0.266-0.023,0.466-0.258,0.44-0.524c-0.021-0.246-0.231-0.441-0.478-0.441
		c-0.799,0.067-1.586,0.1-2.379,0.1c-3.853,0-6.223-0.716-7.293-1.144l-0.914-0.365l0.932-0.318c1.741-0.597,4.377-0.94,7.232-0.94
		c2.879,0,5.526,0.348,7.271,0.954l0.929,0.322L67.6,17.904c-0.332,0.13-0.688,0.254-1.078,0.366
		c-0.287,0.082-0.597,0.161-0.918,0.233c-0.259,0.057-0.424,0.316-0.363,0.576c0.055,0.256,0.334,0.418,0.57,0.365
		c0.338-0.075,0.664-0.159,0.976-0.248c0.85-0.242,1.589-0.537,2.198-0.875l0.345-0.19l0.162,0.357
		c0.06,0.129,0.09,0.256,0.09,0.379C69.564,20.421,65.583,21.535,60.316,21.535z M69.582,16.275l-0.521-0.255
		c-2.562-1.249-6.576-1.435-8.744-1.435c-2.166,0-6.182,0.187-8.739,1.434l-0.525,0.255v-3.653c0-1.482,3.983-2.601,9.265-2.601
		c5.283,0,9.267,1.118,9.267,2.601L69.582,16.275L69.582,16.275z M60.178,1.925l15.602,6.963l-4.983,2.22L70.617,10.9
		c-1.969-2.312-7.859-2.562-10.301-2.562c-2.484,0-8.465,0.258-10.361,2.651l-0.175,0.223l-5.205-2.326L60.178,1.925z"/>
	<path fill="#FFFFFF" d="M52.754,85.388l0.215,0.188l-0.001,0.287c-0.01,1.565,0.495,2.933,1.459,3.959
		c0.54,0.576,1.243,1.047,2.046,1.372l0.266,0.096c0.697,0.247,1.789,0.513,2.333,0.513c0.585,0,1.655-0.266,2.397-0.536
		l0.247-0.111c0.771-0.326,1.435-0.779,1.97-1.346c0.987-1.051,1.508-2.46,1.5-4.073l-0.002-0.304l0.237-0.188
		c3.927-3.121,8.845-6.502,15.569-7.918l0.292-0.062l-0.101-0.281c-1.072-3.008-2.699-5.483-4.273-7.76l-0.188-0.273l0.121-0.31
		c1.066-2.73,2.77-8.06,2.176-13.07c-0.312-2.61-1.638-4.169-3.547-4.169c-0.559,0-1.158,0.129-1.785,0.38
		c-4.912,1.968-8.379,7.017-10.559,10.645l-0.216,0.353l-0.407-0.056c-2.016-0.28-4.537-0.276-6.857,0.012l-0.401,0.05l-0.21-0.348
		c-3.435-5.697-6.891-9.183-10.564-10.655c-0.655-0.263-1.638-0.454-2.338-0.454c-0.372,0-0.653,0.053-0.839,0.157
		c-3.796,2.113-2.36,10.63,0.022,17.281l0.117,0.323l-0.211,0.271c-1.755,2.247-3.182,4.812-4.247,7.62l-0.107,0.282l0.294,0.064
		C42.958,78.604,47.914,81.166,52.754,85.388z M40.326,74.994c1.122-2.479,2.863-4.276,4.702-6.181
		c0.635-0.656,1.27-1.312,1.875-1.996l0.087-0.098l-0.028-0.129c-0.081-0.395-0.345-0.615-0.557-0.79l-0.207-0.189l-0.215-0.007
		c-0.911,0-1.481,0.563-1.982,1.061l-0.742,0.737l-0.349-0.951c-1.329-4.494-2.351-9.085-0.854-12.241l0.238-0.502l0.525,0.178
		c5.522,1.869,8.246,6.393,11.133,11.182l0.088,0.147l0.173-0.023c1.245-0.177,3.12-0.282,5.012-0.282
		c1.856,0,3.476,0.099,4.552,0.28l0.101,0.017l0.085-0.053c0.883-0.559,1.255-1.46,1.615-2.333c0.199-0.478,0.382-0.919,0.643-1.326
		c1.744-2.731,5.789-6.522,9.03-7.811l0.558-0.22l0.244,0.544c1.772,3.918-0.162,10.337-0.8,12.447l-0.274,0.916l-0.854-0.73
		c-0.549-0.487-1.12-0.99-1.758-0.99c-0.425,0-0.806,0.231-1.132,0.686l-0.092,0.128l0.071,0.14
		c0.573,1.134,1.485,1.943,2.367,2.727c0.534,0.474,1.087,0.963,1.556,1.523c0.885,1.065,1.664,2.273,2.606,4.036l0.338,0.629
		l-0.668,0.25c-4.476,1.682-8.093,3.586-11.062,5.822l-0.949,0.716l-0.051-1.188c-0.148-3.532,0.711-5.573,2.789-6.62
		c0.229-0.115,0.534-0.199,0.805-0.271c1.021-0.276,1.595-0.593,1.514-1.386c-0.062-0.626-0.471-0.971-1.146-0.971
		c-0.947,0-2.32,0.684-2.983,1.087c-0.847,0.529-2.022,1.635-2.427,2.437c-0.85,1.688-0.861,4.109-0.871,6.452
		c-0.016,3.32-0.139,5.758-1.6,6.917c-0.308,0.187-0.797,0.435-0.91,0.484l-0.853,0.368l-0.021-0.928
		c-0.013-0.559,0.243-0.966,0.51-1.399c0.299-0.478,0.58-0.926,0.441-1.516c-0.132-0.563-0.734-0.929-1.537-0.929
		c-0.753,0-1.339,0.313-1.495,0.798c-0.199,0.618,0.085,1.062,0.389,1.534c0.267,0.419,0.544,0.85,0.539,1.459l-0.01,0.98
		l-0.885-0.423c-0.098-0.046-0.532-0.268-0.811-0.421l-0.09-0.061c-1.375-1.108-1.499-3.175-1.534-6.449
		c-0.013-1.087-0.025-2.194-0.108-3.347c-0.193-2.695-1.728-5.08-3.074-5.955c-0.451-0.274-2.025-1.076-3.128-1.076
		c-0.361,0-0.986,0.1-1.153,0.762c-0.208,0.814,0.991,1.496,2.707,2.372c0.848,0.433,1.165,0.605,1.313,0.736l0.073,0.076
		c1.003,1.248,0.986,2.659,0.966,4.444l-0.006,1.976l-0.983-0.694c-2.678-1.884-6.356-4.238-11.066-5.708l-0.672-0.21L40.326,74.994
		z"/>
	<path fill="#FFFFFF" d="M114.688,77.583c-0.047-3.868-2.345-7.868-5.715-9.954l-0.716-0.443l0.714-0.442
		c3.372-2.088,5.67-6.087,5.717-9.952c0.082-6.628-3.389-9.503-6.649-11.676l-0.224-0.148l-0.01-0.268
		c-0.195-5.846-2.186-8.968-8.195-12.846l-7.498-4.843l0.931-0.376c1.019-0.409,1.933-1.033,2.717-1.854
		c1.646-1.724,2.542-4.152,2.46-6.661c-0.08-2.479-1.146-4.798-2.998-6.53c-2.123-1.985-5.025-3.037-8.123-2.914
		c-6.068,0.212-10.437,6.104-10.565,11.258c-0.062,2.506,0.438,4.68,1.52,6.642l0.427,0.772h-38.77l0.425-0.771
		c1.082-1.968,1.58-4.141,1.517-6.644c-0.124-5.155-4.494-11.045-10.563-11.258c-3.042-0.096-6.043,0.972-8.121,2.914
		c-1.851,1.731-2.916,4.049-2.998,6.53c-0.084,2.51,0.813,4.938,2.462,6.665c0.781,0.818,1.694,1.441,2.713,1.85l0.932,0.376
		l-7.5,4.843c-6.006,3.877-7.998,6.999-8.197,12.846l-0.01,0.268l-0.222,0.148C6.888,47.293,3.417,50.17,3.5,56.793
		c0.047,3.867,2.343,7.866,5.717,9.952l0.716,0.442L9.217,67.63c-3.374,2.085-5.67,6.085-5.717,9.954
		c-0.084,6.622,3.387,9.497,6.648,11.674l0.222,0.148l0.01,0.268c0.199,5.846,2.19,8.971,8.197,12.848l7.504,4.846l-0.936,0.373
		c-1.016,0.408-1.928,1.031-2.711,1.853c-1.649,1.724-2.548,4.154-2.464,6.665c0.082,2.479,1.146,4.797,2.998,6.526
		c1.984,1.856,4.792,2.921,7.707,2.921l0.432-0.003c4.906-0.171,8.491-4.052,9.862-7.823l0.219-0.605L54.11,125.4l-0.12,0.384
		c-0.547,1.749-0.85,3.362-0.85,4.556c0,4.014,2.701,7.278,6.023,7.278c3.317,0,6.017-3.265,6.017-7.278
		c0-1.22-0.297-2.872-0.837-4.654l-0.112-0.379L77,117.277l0.221,0.606c1.37,3.769,4.956,7.648,9.881,7.819l0.412,0.003
		c2.911,0,5.723-1.063,7.707-2.921c1.854-1.73,2.918-4.049,2.998-6.526c0.082-2.511-0.814-4.938-2.46-6.665
		c-0.782-0.818-1.696-1.441-2.717-1.853l-0.935-0.373l7.502-4.845c6.008-3.881,8-7.002,8.195-12.845l0.01-0.268l0.224-0.15
		C111.299,87.083,114.77,84.208,114.688,77.583z M112.372,56.765c-0.054,4.261-3.667,9.114-8.767,9.265l-0.248,0.003
		c-2.159,0-4.246-0.798-5.713-2.19c-1.477-1.396-2.283-3.265-2.336-5.409c-0.088-3.512,2.334-6.402,5.512-6.579
		c1.066-0.057,1.972,0.138,2.734,0.559l0.105,0.067c0.229,0.128,0.443,0.284,0.637,0.458c0.858,0.778,1.361,1.928,1.418,3.236
		c0.026,0.653-0.21,1.692-0.971,2.473c-0.458,0.471-1.133,0.779-1.901,0.877l-0.04,2.329c1.506-0.114,2.659-0.624,3.598-1.588
		c1.275-1.31,1.679-3.023,1.627-4.189c-0.078-1.933-0.852-3.657-2.174-4.853c-0.34-0.311-0.722-0.585-1.131-0.818l-11.47-7.372
		c-4.224-2.715-5.999-4.177-6.552-7.76l-0.178-1.136l18.73,11.94C109.114,48.53,112.448,50.647,112.372,56.765z M98.344,67.181
		l-0.708,0.443c-0.491,0.31-0.983,0.685-1.454,1.114l-0.873,0.795v-4.696l0.873,0.798c0.457,0.417,0.942,0.789,1.453,1.105
		L98.344,67.181z M95.309,52.025v-4.916l3.994,2.565l-0.96,0.368c-0.772,0.297-1.506,0.728-2.182,1.283L95.309,52.025z
		 M95.309,82.349l0.854,0.702c0.666,0.55,1.4,0.981,2.18,1.28l0.959,0.367l-3.99,2.569v-4.918H95.309z M87.176,10.992l0.223-0.002
		c2.439,0,4.656,0.814,6.24,2.293c1.418,1.326,2.2,3.025,2.264,4.915c0.062,1.889-0.602,3.706-1.821,4.985
		c-0.998,1.047-2.261,1.632-3.558,1.648c-1.073,0-2.062-0.245-2.858-0.691l-0.257-0.164c-0.205-0.135-0.399-0.269-0.571-0.437
		c-0.642-0.633-0.952-1.427-0.955-2.428c-0.011-1.651,1.076-2.664,3.002-2.828l-0.016-2.321c-3.675,0.24-5.316,2.713-5.306,5.158
		c0.008,1.608,0.576,3.015,1.647,4.071c0.196,0.194,0.42,0.371,0.646,0.537l0.065,0.045c0.172,0.124,0.353,0.24,0.536,0.348
		l11.896,7.682c4.528,2.921,6.266,5.062,6.888,8.482l0.213,1.173l-18.34-11.69c-4.142-2.632-8.423-5.352-8.265-11.778
		C78.948,15.959,82.607,11.151,87.176,10.992z M80.42,29.667l0.152,0.146c0.923,0.887,2.001,1.735,3.388,2.667l0.222,0.149
		l0.01,0.267c0.181,6.256,1.92,8.301,7.812,12.088l0.991,0.634v43.14l-0.991,0.635c-5.889,3.779-7.63,5.824-7.812,12.076
		l-0.01,0.273l-24.863,15.982l-0.2-0.108l-0.21,0.134L34.01,101.745L34,101.473c-0.187-6.252-1.925-8.297-7.811-12.08l-0.994-0.642
		v-43.13l0.994-0.637c5.888-3.787,7.626-5.832,7.811-12.089l0.009-0.268l0.221-0.149c1.39-0.935,2.465-1.781,3.384-2.666
		l0.153-0.146L80.42,29.667L80.42,29.667z M12.946,42.283c0.625-3.419,2.362-5.56,6.888-8.48l11.716-7.565
		c0.566-0.318,1.037-0.663,1.425-1.045c1.074-1.059,1.643-2.466,1.649-4.072c0.009-2.443-1.634-4.918-5.306-5.158l-0.016,2.321
		c1.923,0.166,3.009,1.177,3.003,2.83c-0.002,0.999-0.316,1.793-0.956,2.426c-0.103,0.1-0.211,0.191-0.33,0.279l-0.426,0.278
		c-0.814,0.449-1.834,0.704-2.908,0.735c-1.316-0.015-2.58-0.601-3.58-1.646c-1.22-1.279-1.884-3.099-1.822-4.988
		c0.064-1.891,0.847-3.59,2.267-4.914c1.559-1.458,3.829-2.293,6.229-2.293L31,10.993c4.576,0.16,8.237,4.967,8.333,8.997
		c0.158,6.427-4.124,9.148-8.261,11.778L12.733,43.456L12.946,42.283z M5.816,56.765c-0.078-6.113,3.255-8.232,7.112-10.684
		l18.735-11.942l-0.176,1.137c-0.554,3.583-2.329,5.045-6.55,7.759L13.477,50.4c-0.431,0.242-0.806,0.513-1.147,0.823
		c-1.319,1.198-2.091,2.922-2.173,4.854c-0.05,1.166,0.352,2.879,1.629,4.189c0.89,0.911,2.125,1.453,3.599,1.583l-0.039-2.317
		c-0.786-0.091-1.42-0.391-1.901-0.883c-0.762-0.783-1-1.821-0.972-2.474c0.054-1.311,0.558-2.461,1.416-3.236
		c0.216-0.196,0.455-0.367,0.712-0.508c0.783-0.434,1.713-0.624,2.757-0.576c3.185,0.176,5.607,3.066,5.519,6.58
		c-0.053,2.143-0.859,4.014-2.334,5.41c-1.469,1.391-3.535,2.19-5.67,2.19L14.58,66.03C9.483,65.88,5.869,61.028,5.816,56.765z
		 M22.876,47.109v4.916l-0.85-0.7c-0.672-0.552-1.406-0.982-2.183-1.281l-0.961-0.367L22.876,47.109z M22.876,64.84v4.695
		l-0.87-0.797c-0.466-0.426-0.957-0.799-1.455-1.109l-0.711-0.441l0.709-0.442c0.51-0.319,1-0.693,1.456-1.108L22.876,64.84z
		 M5.816,77.61c0.053-4.25,3.654-9.098,8.738-9.264l0.229,0.004c2.224,0.002,4.276,0.777,5.76,2.18
		c1.475,1.396,2.281,3.267,2.334,5.41c0.088,3.516-2.334,6.405-5.514,6.576c-1.055,0.056-1.964-0.133-2.732-0.554L14.535,81.9
		c-0.239-0.138-0.458-0.294-0.646-0.463c-0.858-0.778-1.363-1.928-1.417-3.236c-0.028-0.653,0.21-1.691,0.972-2.474
		c0.485-0.498,1.124-0.793,1.9-0.884l0.042-2.326c-1.448,0.107-2.684,0.651-3.601,1.591c-1.277,1.308-1.679,3.022-1.629,4.191
		c0.083,1.932,0.854,3.657,2.173,4.857c0.333,0.301,0.708,0.571,1.118,0.803l11.489,7.385c4.223,2.711,5.998,4.172,6.55,7.758
		l0.178,1.139L12.933,88.296C9.074,85.844,5.738,83.724,5.816,77.61z M22.876,82.351v4.913l-3.991-2.565l0.96-0.367
		c0.775-0.297,1.509-0.729,2.182-1.28L22.876,82.351z M31.009,123.382c-0.151,0.011-0.308,0.013-0.466,0.013
		c-2.241,0-4.425-0.84-5.992-2.303c-1.419-1.326-2.202-3.025-2.266-4.912c-0.062-1.89,0.603-3.711,1.824-4.988
		c1-1.047,2.264-1.631,3.559-1.645h0.016c1.097,0.023,2.084,0.266,2.855,0.697l0.218,0.14c0.185,0.118,0.403,0.265,0.593,0.451
		c0.633,0.622,0.957,1.438,0.958,2.427c0.006,1.653-1.08,2.665-3.003,2.829l0.016,2.321c3.672-0.235,5.315-2.71,5.306-5.156
		c-0.006-1.611-0.576-3.018-1.651-4.072c-0.198-0.192-0.416-0.371-0.64-0.535l-0.085-0.061c-0.176-0.123-0.345-0.232-0.523-0.336
		l-11.892-7.68c-4.528-2.922-6.266-5.063-6.888-8.483l-0.213-1.173l18.339,11.691c4.139,2.631,8.42,5.351,8.262,11.781
		C39.238,118.419,35.581,123.227,31.009,123.382z M55.199,122.646l-0.249,0.539l-13.315-8.371l0.013-0.301
		c0.043-1.598-0.132-3-0.531-4.357l-0.394-1.338l16.401,10.543l-0.313,0.44C56.243,120.605,55.7,121.564,55.199,122.646z
		 M59.163,135.297c-2.008,0-3.706-2.271-3.706-4.96c0-2.713,1.792-7.267,3.336-9.373l0.412-0.565l0.424,0.561
		c1.464,1.947,3.234,6.566,3.234,9.379C62.863,133.025,61.167,135.297,59.163,135.297z M77.068,110.159
		c-0.398,1.354-0.572,2.755-0.536,4.284l0.009,0.298l-0.244,0.235l-12.885,8.104l-0.248-0.538c-0.505-1.095-1.049-2.047-1.625-2.828
		l-0.327-0.444l16.252-10.451L77.068,110.159z M105.241,92.092c-0.622,3.417-2.358,5.559-6.888,8.48l-11.895,7.68
		c-0.193,0.116-0.354,0.223-0.518,0.333l-0.088,0.062c-0.226,0.168-0.443,0.344-0.642,0.537c-1.075,1.058-1.646,2.463-1.651,4.068
		c-0.012,2.446,1.631,4.924,5.306,5.159l0.016-2.321c-1.926-0.164-3.013-1.176-3.002-2.832c0.002-0.986,0.326-1.805,0.96-2.424
		c0.186-0.184,0.4-0.326,0.592-0.447l0.191-0.129c0.825-0.466,1.816-0.712,2.816-0.712c1.377,0.013,2.64,0.599,3.641,1.646
		c1.22,1.279,1.883,3.094,1.82,4.981c-0.063,1.888-0.846,3.589-2.264,4.917c-1.566,1.463-3.769,2.301-6.031,2.301
		c-0.146,0-0.291-0.004-0.438-0.011c-4.562-0.155-8.223-4.963-8.318-8.996c-0.158-6.429,4.123-9.147,8.269-11.778l18.335-11.688
		L105.241,92.092z M105.25,88.3l-18.725,11.939l0.174-1.14c0.556-3.584,2.332-5.047,6.555-7.76l11.432-7.351
		c0.444-0.252,0.828-0.527,1.17-0.835c1.321-1.199,2.095-2.925,2.174-4.857c0.051-1.169-0.353-2.881-1.627-4.189
		c-0.944-0.968-2.185-1.516-3.601-1.6l0.042,2.332c0.801,0.083,1.397,0.371,1.897,0.887c0.762,0.779,1.001,1.817,0.975,2.471
		c-0.057,1.312-0.56,2.461-1.418,3.239c-0.183,0.167-0.399,0.322-0.659,0.472c-0.854,0.472-1.768,0.652-2.812,0.608
		c-3.185-0.173-5.606-3.062-5.519-6.578c0.053-2.14,0.859-4.01,2.336-5.407c1.486-1.408,3.5-2.184,5.664-2.184l0.295-0.002
		c5.112,0.167,8.715,5.015,8.769,9.264C112.447,83.726,109.111,85.845,105.25,88.3z"/>
	<path fill="#FFFFFF" d="M30.611,47.167l-1.424,0.896V86.44l0.616,0.325c5.365,2.836,7.658,6.213,8.183,12.053l0.05,0.576
		l21.057,13.023l21.062-13.023l0.054-0.578c0.521-5.838,2.812-9.215,8.177-12.051L89,86.441V48.064l-1.428-0.899
		c-3.692-2.293-7.512-4.668-7.779-11.9l-0.042-1.115H38.434l-0.04,1.115C38.124,42.499,34.305,44.872,30.611,47.167z M40.594,36.929
		l0.051-0.464h36.896l0.051,0.464c0.801,7.258,5.027,9.885,8.758,12.205l0.244,0.151l0.006,0.292l0.086,35.476l-0.265,0.149
		c-5.203,2.994-7.726,6.758-8.438,12.585l-0.028,0.246l-18.861,11.66L40.236,98.029l-0.03-0.248
		c-0.714-5.821-3.238-9.583-8.438-12.579l-0.263-0.149V49.336l0.25-0.152C35.381,46.932,39.791,44.189,40.594,36.929z"/>
</g>
<g>
	<path fill="#FFFFFF" d="M23.569,177.529h-1.75v1.351h2.08v0.728h-3.028v-4.724h3.023v0.731h-2.076v1.187h1.75L23.569,177.529
		L23.569,177.529z"/>
	<path fill="#FFFFFF" d="M25.495,179.605v-4.723h1.646c0.579,0,1.055,0.186,1.427,0.555c0.374,0.369,0.562,0.842,0.562,1.418v0.78
		c0,0.58-0.188,1.054-0.562,1.419c-0.372,0.367-0.848,0.551-1.427,0.551H25.495L25.495,179.605z M26.441,175.615v3.265h0.7
		c0.315,0,0.563-0.116,0.754-0.349c0.191-0.231,0.286-0.529,0.286-0.895v-0.787c0-0.359-0.095-0.658-0.286-0.89
		c-0.19-0.229-0.439-0.347-0.754-0.347h-0.7V175.615z"/>
	<path fill="#FFFFFF" d="M34.558,174.884v3.093c0,0.531-0.174,0.945-0.527,1.25c-0.352,0.299-0.809,0.448-1.371,0.448
		c-0.56,0-1.014-0.149-1.364-0.448c-0.35-0.305-0.521-0.719-0.521-1.25v-3.093h0.947v3.093c0,0.313,0.085,0.556,0.253,0.724
		c0.17,0.166,0.395,0.249,0.685,0.249c0.292,0,0.523-0.083,0.694-0.249c0.171-0.168,0.256-0.409,0.256-0.724v-3.093H34.558z"/>
	<path fill="#FFFFFF" d="M39.851,178.044l0.007,0.021c0.007,0.502-0.145,0.896-0.463,1.182c-0.314,0.287-0.75,0.43-1.304,0.43
		c-0.567,0-1.026-0.182-1.372-0.546c-0.349-0.366-0.522-0.836-0.522-1.415v-0.936c0-0.576,0.169-1.045,0.509-1.411
		c0.338-0.368,0.786-0.552,1.336-0.552c0.576,0,1.024,0.144,1.348,0.422c0.325,0.283,0.482,0.679,0.475,1.189l-0.006,0.016h-0.921
		c0-0.301-0.072-0.526-0.218-0.674c-0.148-0.146-0.374-0.224-0.677-0.224c-0.283,0-0.504,0.113-0.663,0.343
		c-0.157,0.229-0.238,0.523-0.238,0.883v0.942c0,0.364,0.083,0.662,0.25,0.892c0.169,0.229,0.402,0.344,0.701,0.344
		c0.282,0,0.494-0.075,0.633-0.223c0.14-0.147,0.208-0.377,0.208-0.683H39.851z"/>
	<path fill="#FFFFFF" d="M43.926,178.587h-1.53l-0.318,1.021h-0.989l1.591-4.724h0.97l1.585,4.724h-0.988L43.926,178.587z
		 M42.63,177.843h1.064l-0.521-1.661h-0.019L42.63,177.843z"/>
	<path fill="#FFFFFF" d="M49.623,175.615h-1.35v3.99h-0.945v-3.99h-1.332v-0.731h3.627V175.615z"/>
	<path fill="#FFFFFF" d="M52.082,179.605h-0.946v-4.723h0.946V179.605z"/>
	<path fill="#FFFFFF" d="M57.768,177.672c0,0.58-0.182,1.061-0.548,1.438c-0.364,0.375-0.84,0.565-1.426,0.565
		c-0.584,0-1.057-0.19-1.419-0.567c-0.362-0.379-0.545-0.857-0.545-1.436v-0.852c0-0.576,0.181-1.057,0.543-1.437
		c0.361-0.378,0.833-0.567,1.413-0.567c0.588,0,1.064,0.189,1.432,0.567c0.369,0.38,0.551,0.859,0.551,1.437L57.768,177.672
		L57.768,177.672z M56.825,176.812c0-0.365-0.093-0.664-0.275-0.901c-0.184-0.236-0.439-0.354-0.764-0.354
		c-0.317,0-0.568,0.118-0.745,0.354c-0.179,0.237-0.268,0.536-0.268,0.901v0.858c0,0.374,0.089,0.677,0.27,0.912
		c0.179,0.235,0.429,0.353,0.751,0.353c0.323,0,0.577-0.117,0.759-0.353c0.181-0.235,0.272-0.538,0.272-0.912V176.812z"/>
	<path fill="#FFFFFF" d="M63.264,179.605h-0.945l-1.904-3.185l-0.018,0.005v3.18h-0.947v-4.723h0.947l1.903,3.184l0.019-0.004v-3.18
		h0.945V179.605z"/>
	<path fill="#FFFFFF" d="M70.107,178.374c0-0.183-0.064-0.328-0.188-0.437c-0.127-0.111-0.351-0.215-0.669-0.312
		c-0.543-0.164-0.958-0.36-1.238-0.58c-0.283-0.226-0.424-0.528-0.424-0.912c0-0.388,0.159-0.702,0.479-0.948
		c0.315-0.246,0.725-0.369,1.213-0.369c0.525,0,0.947,0.131,1.267,0.396c0.315,0.266,0.472,0.609,0.461,1.038l-0.008,0.021h-0.917
		c0-0.235-0.072-0.416-0.214-0.545c-0.144-0.127-0.343-0.188-0.599-0.188c-0.234,0-0.416,0.056-0.541,0.168
		c-0.129,0.109-0.193,0.255-0.193,0.432c0,0.159,0.07,0.291,0.207,0.393c0.14,0.104,0.378,0.213,0.717,0.326
		c0.521,0.147,0.917,0.34,1.188,0.576c0.272,0.235,0.41,0.549,0.41,0.937c0,0.401-0.16,0.722-0.474,0.957
		c-0.317,0.231-0.733,0.35-1.252,0.35c-0.509,0-0.945-0.128-1.31-0.38c-0.362-0.252-0.541-0.63-0.529-1.132l0.007-0.021h0.917
		c0,0.278,0.083,0.485,0.249,0.616c0.161,0.134,0.385,0.198,0.666,0.198c0.252,0,0.444-0.055,0.576-0.161
		C70.04,178.691,70.107,178.552,70.107,178.374z"/>
	<path fill="#FFFFFF" d="M75.379,177.529h-1.752v1.351h2.084v0.728H72.68v-4.724h3.023v0.731h-2.076v1.187h1.752V177.529z"/>
	<path fill="#FFFFFF" d="M78.251,177.721v1.887h-0.948v-4.724h1.637c0.537,0,0.959,0.123,1.262,0.369
		c0.305,0.245,0.456,0.586,0.456,1.026c0,0.24-0.063,0.451-0.191,0.628c-0.129,0.176-0.317,0.317-0.562,0.426
		c0.277,0.083,0.479,0.22,0.6,0.412c0.123,0.192,0.184,0.43,0.184,0.714v0.348c0,0.131,0.019,0.27,0.056,0.411
		c0.034,0.146,0.095,0.253,0.183,0.32v0.067H79.95c-0.089-0.069-0.144-0.184-0.168-0.342c-0.025-0.16-0.036-0.315-0.036-0.468
		v-0.333c0-0.234-0.064-0.418-0.193-0.549c-0.128-0.13-0.311-0.195-0.546-0.195h-0.756V177.721z M78.251,176.99h0.672
		c0.267,0,0.466-0.057,0.593-0.17c0.129-0.112,0.196-0.277,0.196-0.5c0-0.217-0.067-0.387-0.198-0.514
		c-0.13-0.13-0.32-0.191-0.574-0.191h-0.688V176.99z"/>
	<path fill="#FFFFFF" d="M84.014,178.324l0.057,0.26h0.02l0.057-0.247l1.027-3.453h0.998l-1.604,4.724h-0.975l-1.601-4.724h0.998
		L84.014,178.324z"/>
	<path fill="#FFFFFF" d="M88.568,179.605h-0.944v-4.723h0.944V179.605z"/>
	<path fill="#FFFFFF" d="M93.977,178.044l0.008,0.021c0.01,0.502-0.145,0.896-0.461,1.182c-0.313,0.287-0.75,0.43-1.305,0.43
		c-0.566,0-1.025-0.182-1.371-0.546c-0.35-0.366-0.522-0.836-0.522-1.415v-0.936c0-0.576,0.168-1.045,0.509-1.411
		c0.34-0.368,0.783-0.552,1.336-0.552c0.573,0,1.023,0.144,1.35,0.422c0.324,0.283,0.481,0.679,0.473,1.189l-0.006,0.016h-0.922
		c0-0.301-0.07-0.526-0.219-0.674c-0.146-0.146-0.371-0.224-0.676-0.224c-0.284,0-0.504,0.113-0.663,0.343
		c-0.161,0.229-0.237,0.523-0.237,0.883v0.942c0,0.364,0.084,0.662,0.25,0.892c0.168,0.229,0.4,0.344,0.701,0.344
		c0.28,0,0.491-0.075,0.635-0.223c0.139-0.147,0.207-0.377,0.207-0.683H93.977z"/>
	<path fill="#FFFFFF" d="M98.289,177.529h-1.751v1.351h2.083v0.728h-3.029v-4.724h3.023v0.731h-2.077v1.187h1.751V177.529z"/>
</g>
</svg>
