<?xml version="1.0" encoding="utf-8"?>
<!-- Generator: Adobe Illustrator 15.0.0, SVG Export Plug-In . SVG Version: 6.00 Build 0)  -->
<!DOCTYPE svg PUBLIC "-//W3C//DTD SVG 1.1//EN" "http://www.w3.org/Graphics/SVG/1.1/DTD/svg11.dtd">
<svg version="1.1" id="Layer_1" xmlns="http://www.w3.org/2000/svg" xmlns:xlink="http://www.w3.org/1999/xlink" x="0px" y="0px"
	 width="20px" height="20px" viewBox="0 0 20 20" enable-background="new 0 0 20 20" xml:space="preserve">
<g>
	<path fill="#FFFFFF" d="M9.848,7.346C9.339,7.447,8.853,7.692,8.459,8.084C8.173,8.367,7.971,8.697,7.837,9.048
		c-1.296,2.177-3.331,6.791-3.331,6.791s4.651-2.019,6.846-3.307c0.354-0.131,0.688-0.333,0.973-0.614
		c0.335-0.335,0.553-0.735,0.678-1.158c1.299-2.243,3.22-6.597,3.22-6.597s-4.69,2.036-6.873,3.321
		C9.511,7.42,9.679,7.378,9.848,7.346z M5.467,14.885c0.69-1.52,1.523-3.263,2.221-4.573c0.068,0.586,0.317,1.156,0.771,1.606
		c0.452,0.448,1.026,0.695,1.617,0.763C8.755,13.373,6.999,14.198,5.467,14.885z M11.979,8.426c0.419,0.415,0.648,0.964,0.655,1.55
		c-0.003,0.557-0.218,1.111-0.644,1.535c-0.147,0.146-0.442,0.345-0.837,0.577c-0.242,0.087-0.497,0.14-0.763,0.14
		c-0.599,0-1.163-0.232-1.588-0.652C8.379,11.154,8.146,10.595,8.146,10c0-0.263,0.053-0.517,0.141-0.756
		C8.521,8.853,8.721,8.56,8.867,8.415c0.412-0.409,0.96-0.635,1.542-0.64C11.002,7.78,11.559,8.01,11.979,8.426z"/>
	<path fill="#FFFFFF" d="M9.917,0C4.356,0-0.167,4.487-0.167,10c0,5.513,4.523,10,10.084,10C15.477,20,20,15.514,20,10
		C20,4.487,15.477,0,9.917,0z M10.16,19.021v-0.924c0-0.134-0.108-0.24-0.243-0.24s-0.243,0.106-0.243,0.24v0.924
		c-4.827-0.128-8.724-3.993-8.852-8.779h0.929c0.134,0,0.244-0.108,0.244-0.242s-0.11-0.242-0.244-0.242H0.822
		C0.95,4.972,4.847,1.107,9.674,0.98v0.922c0,0.133,0.108,0.242,0.243,0.242s0.243-0.108,0.243-0.242V0.98
		c4.827,0.127,8.723,3.992,8.853,8.778h-0.931c-0.135,0-0.243,0.108-0.243,0.242s0.108,0.242,0.243,0.242h0.931
		C18.883,15.028,14.987,18.894,10.16,19.021z"/>
</g>
</svg>
