<?xml version="1.0" encoding="utf-8"?>
<!-- Generator: Adobe Illustrator 15.0.0, SVG Export Plug-In . SVG Version: 6.00 Build 0)  -->
<!DOCTYPE svg PUBLIC "-//W3C//DTD SVG 1.1//EN" "http://www.w3.org/Graphics/SVG/1.1/DTD/svg11.dtd">
<svg version="1.1" id="Layer_1" xmlns="http://www.w3.org/2000/svg" xmlns:xlink="http://www.w3.org/1999/xlink" x="0px" y="0px"
	 width="50px" height="50px" viewBox="0 0 50 50" enable-background="new 0 0 50 50" xml:space="preserve">
<g>
	<path fill="#FFFFFF" d="M24.138,35.478c0.111,0.3,0.393,0.518,0.732,0.518c0.339,0,0.621-0.218,0.73-0.518l7.646-6.882
		c0.323-0.29,0.35-0.786,0.06-1.108c-0.155-0.173-0.368-0.259-0.583-0.259c-0.188,0-0.376,0.064-0.526,0.201l-6.542,5.886V13.876
		c0-0.435-0.352-0.788-0.785-0.788c-0.434,0-0.785,0.353-0.785,0.788v19.439l-6.543-5.889c-0.151-0.135-0.337-0.201-0.527-0.201
		c-0.213,0-0.429,0.087-0.583,0.26c-0.29,0.323-0.264,0.818,0.059,1.108L24.138,35.478z"/>
	<path fill="#FFFFFF" d="M25,50c13.784,0,25-11.216,25-25S38.786,0,25,0C11.215,0,0,11.216,0,25S11.215,50,25,50z M25,1.572
		c12.919,0,23.43,10.511,23.43,23.428C48.429,37.919,37.919,48.429,25,48.429C12.083,48.429,1.571,37.919,1.571,25
		C1.571,12.083,12.083,1.572,25,1.572z"/>
</g>
</svg>
