<?xml version="1.0" encoding="utf-8"?>
<!-- Generator: Adobe Illustrator 15.0.0, SVG Export Plug-In . SVG Version: 6.00 Build 0)  -->
<!DOCTYPE svg PUBLIC "-//W3C//DTD SVG 1.1//EN" "http://www.w3.org/Graphics/SVG/1.1/DTD/svg11.dtd">
<svg version="1.1" id="Layer_1" xmlns="http://www.w3.org/2000/svg" xmlns:xlink="http://www.w3.org/1999/xlink" x="0px" y="0px"
	 width="16px" height="16px" viewBox="0 0 16 16" enable-background="new 0 0 16 16" xml:space="preserve">
<path fill="#FFFFFF" d="M14.1,0H1.901C0.853,0,0,0.85,0,1.897v12.205C0,15.15,0.853,16,1.901,16h12.197
	C15.148,16,16,15.148,16,14.102V1.897C16.002,0.85,15.148,0,14.1,0z M11.114,2.27c0-0.248,0.201-0.447,0.449-0.447h2.163
	c0.249,0,0.447,0.2,0.447,0.447v2.159c0,0.246-0.198,0.446-0.447,0.446h-2.163c-0.248,0-0.449-0.2-0.449-0.446V2.27z M8.021,4.948
	c1.698,0,3.076,1.375,3.076,3.069c0,1.697-1.378,3.07-3.076,3.07c-1.699,0-3.078-1.373-3.078-3.07
	C4.942,6.324,6.321,4.948,8.021,4.948z M14.21,13.693c0,0.246-0.198,0.445-0.447,0.445H2.275c-0.247,0-0.447-0.199-0.447-0.445
	V6.736h1.497C3.213,7.144,3.151,7.575,3.151,8.019c0,2.678,2.185,4.856,4.869,4.856c2.682,0,4.865-2.179,4.865-4.856
	c0-0.443-0.06-0.874-0.173-1.283h1.497V13.693z"/>
</svg>
