<?xml version="1.0" encoding="utf-8"?>
<!-- Generator: Adobe Illustrator 15.0.0, SVG Export Plug-In . SVG Version: 6.00 Build 0)  -->
<!DOCTYPE svg PUBLIC "-//W3C//DTD SVG 1.1//EN" "http://www.w3.org/Graphics/SVG/1.1/DTD/svg11.dtd">
<svg version="1.1" id="Layer_1" xmlns="http://www.w3.org/2000/svg" xmlns:xlink="http://www.w3.org/1999/xlink" x="0px" y="0px"
	 width="20px" height="20px" viewBox="0 0 20 20" enable-background="new 0 0 20 20" xml:space="preserve">
<path fill-rule="evenodd" clip-rule="evenodd" fill="#FFFFFF" d="M8.125,5.302c1.133-0.167,2.479-0.198,3.604,0
	c1.13-1.95,2.739-4.23,4.875-5.101c1.378-0.561,2.104,0.308,2.261,1.652c0.26,2.225-0.459,4.673-1.061,6.178
	c0.784,1.145,1.549,2.307,2.05,3.735c-3.034,0.651-5.238,2.145-7.278,3.808c0.223,3.763-5.522,3.746-5.298,0.072
	c-1.96-1.768-4.25-3.199-7.278-3.88c0.518-1.39,1.206-2.604,2.049-3.663C1.42,6.428-0.095,1.191,1.907,0.057
	C2.14-0.074,2.857,0.041,3.25,0.201C5.383,1.07,6.992,3.348,8.125,5.302z M17.594,0.775c-0.048,0-0.096,0-0.142,0
	c-1.592,0.534-3.557,2.423-4.381,3.736c-0.353,0.562-0.418,1.286-0.989,1.652c-1.108-0.188-3.265-0.16-4.381,0
	C6.364,3.908,5.029,1.65,2.261,0.848C1.152,2.599,2.119,5.691,2.614,7.385c0.473,0.015,0.694-0.82,1.413-0.79
	c0.112,0.103,0.246,0.181,0.284,0.359c-1.151,1.321-2.528,2.411-3.18,4.238c2.41,0.686,4.297,1.905,6.076,3.233
	c-0.122-1.37,0.203-2.425-0.495-3.305c-0.228-0.288-1.957-0.881-1.836-1.365c0.163-0.657,1.62,0.118,1.767,0.216
	c0.623,0.413,1.259,1.484,1.343,2.658c0.172,2.441-0.327,4.593,1.553,4.956c0.438-1.18-0.665-1.462-0.424-2.226
	c0.179-0.568,1.473-0.591,1.626,0.071c0.171,0.744-0.886,1.108-0.424,2.154c2.455-0.328,0.938-4.578,1.907-6.536
	c0.167-0.34,0.686-0.84,1.061-1.078c0.165-0.104,1.616-0.938,1.695-0.145c0.047,0.482-0.61,0.452-0.988,0.647
	c-1.318,0.674-1.466,2.12-1.272,3.951c1.673-1.437,3.735-2.477,6.005-3.305c-0.431-0.849-0.85-1.609-1.412-2.299
	c-0.557-0.68-1.36-1.12-1.768-1.94c0.583-0.828,1.25,0.538,1.696,0.503C17.771,5.649,18.652,2.585,17.594,0.775z"/>
</svg>
