<?xml version="1.0" encoding="utf-8"?>
<!-- Generator: Adobe Illustrator 15.0.0, SVG Export Plug-In . SVG Version: 6.00 Build 0)  -->
<!DOCTYPE svg PUBLIC "-//W3C//DTD SVG 1.1//EN" "http://www.w3.org/Graphics/SVG/1.1/DTD/svg11.dtd">
<svg version="1.1" id="Layer_1" xmlns="http://www.w3.org/2000/svg" xmlns:xlink="http://www.w3.org/1999/xlink" x="0px" y="0px"
	 width="16px" height="16px" viewBox="0 0 16 16" enable-background="new 0 0 16 16" xml:space="preserve">
<path id="Google_3_" fill="#FFFFFF" d="M13.064,0.033H8.742c-1.132,0-2.558,0.167-3.753,1.152C4.087,1.96,3.647,3.028,3.647,3.993
	c0,1.634,1.257,3.29,3.481,3.29c0.21,0,0.439-0.021,0.672-0.042c-0.105,0.25-0.211,0.46-0.211,0.816c0,0.651,0.336,1.048,0.63,1.426
	C7.276,9.545,5.514,9.65,4.212,10.446c-1.236,0.734-1.615,1.803-1.615,2.557c0,1.551,1.468,2.997,4.51,2.997
	c3.608,0,5.517-1.991,5.517-3.962c0-1.444-0.84-2.157-1.762-2.933l-0.756-0.586C9.877,8.331,9.563,8.08,9.563,7.618
	c0-0.461,0.313-0.754,0.586-1.027c0.88-0.691,1.761-1.425,1.761-2.976c0-1.593-1.008-2.431-1.488-2.829h1.302L13.064,0.033z
	 M11.221,12.856c0,1.299-1.071,2.263-3.085,2.263c-2.244,0-3.693-1.068-3.693-2.557s1.344-1.989,1.805-2.157
	c0.882-0.293,2.015-0.335,2.202-0.335c0.21,0,0.316,0,0.483,0.02C10.528,11.222,11.221,11.788,11.221,12.856z M9.541,6.11
	C9.206,6.444,8.639,6.696,8.114,6.696c-1.803,0-2.621-2.327-2.621-3.729c0-0.545,0.104-1.11,0.459-1.551
	C6.29,0.997,6.877,0.724,7.422,0.724c1.74,0,2.645,2.347,2.645,3.855C10.066,4.958,10.023,5.627,9.541,6.11z"/>
</svg>
