<?xml version="1.0" encoding="utf-8"?>
<!-- Generator: Adobe Illustrator 15.0.0, SVG Export Plug-In . SVG Version: 6.00 Build 0)  -->
<!DOCTYPE svg PUBLIC "-//W3C//DTD SVG 1.1//EN" "http://www.w3.org/Graphics/SVG/1.1/DTD/svg11.dtd">
<svg version="1.1" id="Layer_1" xmlns="http://www.w3.org/2000/svg" xmlns:xlink="http://www.w3.org/1999/xlink" x="0px" y="0px"
	 width="16px" height="16px" viewBox="0 0 16 16" enable-background="new 0 0 16 16" xml:space="preserve">
<path id="Facebook__x28_alt_x29__3_" fill="#FFFFFF" d="M16,2.667C16,1.266,14.735,0,13.333,0H2.667C1.265,0,0,1.266,0,2.667v10.667
	C0,14.734,1.265,16,2.667,16H8V9.955H6.045V7.289H8V6.25c0-1.792,1.346-3.405,3-3.405h2.156v2.667H11
	c-0.236,0-0.511,0.286-0.511,0.715v1.062h2.667v2.667h-2.667V16h2.844C14.735,16,16,14.734,16,13.333V2.667L16,2.667z"/>
</svg>
