<?xml version="1.0" encoding="utf-8"?>
<!-- Generator: Adobe Illustrator 15.0.0, SVG Export Plug-In . SVG Version: 6.00 Build 0)  -->
<!DOCTYPE svg PUBLIC "-//W3C//DTD SVG 1.1//EN" "http://www.w3.org/Graphics/SVG/1.1/DTD/svg11.dtd">
<svg version="1.1" id="Layer_1" xmlns="http://www.w3.org/2000/svg" xmlns:xlink="http://www.w3.org/1999/xlink" x="0px" y="0px"
	 width="54px" height="54px" viewBox="0 0 54 54" enable-background="new 0 0 54 54" xml:space="preserve">
<path fill-rule="evenodd" clip-rule="evenodd" fill="#FFFFFF" d="M25.857,0.087c0.791,0,1.581,0,2.372,0
	c7.914,0.492,13.602,3.682,17.845,7.925c4.244,4.244,7.432,9.932,7.926,17.845c0,0.791,0,1.581,0,2.372
	c-0.495,7.912-3.682,13.602-7.926,17.845c-4.243,4.244-9.933,7.431-17.845,7.926c-0.791,0-1.581,0-2.372,0
	c-7.913-0.494-13.602-3.682-17.845-7.926c-4.245-4.243-7.433-9.93-7.926-17.845c0-0.809,0-1.618,0-2.426
	c0.172-3.801,1.24-7.395,2.642-10.351c1.435-3.026,3.244-5.401,5.338-7.494C12.354,3.671,18.09,0.572,25.857,0.087z M21.76,3.322
	c-0.035,0-0.071,0-0.107,0c-5.434,1.323-9.557,3.957-12.724,7.547c1.835,1.13,3.676,2.254,5.876,3.02
	C16.489,9.732,18.935,6.336,21.76,3.322z M17.285,14.805c2.496,0.792,5.239,1.339,8.41,1.456c-0.035-4.295,0.072-8.734-0.054-12.939
	C22.11,6.404,19.244,10.15,17.285,14.805z M28.392,16.261c3.169-0.12,5.915-0.663,8.41-1.456c-1.982-4.649-4.808-8.455-8.41-11.483
	C28.392,7.634,28.392,11.948,28.392,16.261z M39.282,13.889c2.188-0.794,4.109-1.857,5.876-3.073
	c-3.233-3.487-7.385-6.346-12.831-7.44C35.203,6.322,37.584,9.764,39.282,13.889z M7.312,12.972
	c-0.575,0.59-1.275,1.732-1.779,2.696c-1.465,2.799-2.538,6.164-2.749,10.028c3.108,0,6.218,0,9.326,0
	c0.181-3.503,0.817-6.55,1.726-9.327C11.423,15.474,9.326,14.264,7.312,12.972z M46.83,12.972c-1.943,1.166-4.154,2.531-6.578,3.396
	c0.908,2.776,1.542,5.827,1.726,9.327c3.109,0,6.218,0,9.326,0C50.963,20.303,49.229,16.306,46.83,12.972z M14.751,25.695
	c3.648,0,7.297,0,10.944,0c0-2.265,0-4.529,0-6.793c-3.552-0.079-6.486-0.773-9.327-1.563
	C15.479,19.557,14.968,22.623,14.751,25.695z M28.392,18.902c0,2.264,0,4.528,0,6.793c3.63-0.036,7.403,0.072,10.944-0.054
	c-0.215-3.075-0.732-5.846-1.563-8.303C35.06,18.059,31.948,18.848,28.392,18.902z M7.312,41.168
	c1.906-1.382,4.112-2.465,6.415-3.45c-0.834-2.813-1.496-5.8-1.617-9.327c-3.091,0-6.182,0-9.272,0
	C3.043,33.72,4.898,37.867,7.312,41.168z M16.261,36.802c2.84-0.845,5.838-1.531,9.435-1.618c0-2.264,0-4.528,0-6.793
	c-3.63,0-7.26,0-10.891,0C14.832,31.438,15.458,34.352,16.261,36.802z M28.392,28.553c0,2.211,0,4.421,0,6.631
	c3.597,0.088,6.595,0.774,9.435,1.618c0.837-2.47,1.346-5.268,1.51-8.411c-3.631,0-7.261,0-10.891,0
	C28.382,28.4,28.387,28.477,28.392,28.553z M40.36,37.718c2.328,0.979,4.505,2.108,6.47,3.45c2.358-3.391,4.145-7.355,4.474-12.777
	c-3.091,0-6.182,0-9.272,0C41.794,31.819,41.23,34.922,40.36,37.718z M17.178,39.281c1.783,4.462,4.638,8.242,7.871,11.214
	c0.173,0.16,0.369,0.461,0.646,0.432c0-4.366,0-8.733,0-13.101C22.469,37.924,19.757,38.536,17.178,39.281z M28.392,50.98
	c3.595-2.928,6.562-6.952,8.518-11.699c-2.563-0.743-5.266-1.347-8.464-1.455C28.319,42.103,28.427,46.613,28.392,50.98z
	 M21.437,50.657c-2.803-2.948-5.068-6.433-6.793-10.459c-2.035,0.894-4.017,1.842-5.715,3.072
	C12.087,46.708,16.191,49.487,21.437,50.657z M39.39,40.198c-1.193,3.104-2.937,5.813-4.798,8.194
	c-0.623,0.796-1.31,1.526-1.888,2.318c5.276-1.373,9.345-3.954,12.454-7.493C43.369,42.076,41.486,41.03,39.39,40.198z"/>
</svg>
