<?xml version="1.0" encoding="utf-8"?>
<!-- Generator: Adobe Illustrator 15.0.0, SVG Export Plug-In . SVG Version: 6.00 Build 0)  -->
<!DOCTYPE svg PUBLIC "-//W3C//DTD SVG 1.1//EN" "http://www.w3.org/Graphics/SVG/1.1/DTD/svg11.dtd">
<svg version="1.1" id="Layer_1" xmlns="http://www.w3.org/2000/svg" xmlns:xlink="http://www.w3.org/1999/xlink" x="0px" y="0px"
	 width="106px" height="129px" viewBox="0 0 106 129" enable-background="new 0 0 106 129" xml:space="preserve">
<g>
	<path d="M37.882,8.094c0,0.625,0.341,1.217,0.887,1.541l0.081,0.067c0.17,0.187,0.365,0.34,0.533,0.468
		c0.371,0.277,0.58,0.451,0.58,0.783s-0.198,0.498-0.583,0.786c-0.417,0.314-0.936,0.707-0.936,1.501
		c0,0.796,0.565,1.222,0.938,1.503c0.165,0.124,0.284,0.22,0.363,0.301l0.432,0.437l-0.606,0.134
		c-0.468,0.104-0.823,0.486-0.882,0.95l-0.361,2.786c-0.043,0.322,0.059,0.645,0.275,0.884c0.216,0.246,0.529,0.384,0.859,0.384
		h1.964c0.329,0,0.64-0.139,0.856-0.381c0.219-0.243,0.318-0.566,0.277-0.886l-0.36-2.787c-0.065-0.518-0.499-0.928-1.027-0.977
		l-0.272-0.024l-0.039-0.268c-0.096-0.655-0.59-1.027-0.916-1.273c-0.382-0.287-0.582-0.452-0.582-0.783
		c0-0.33,0.2-0.497,0.58-0.783c0.353-0.265,0.88-0.664,0.937-1.375l0.037-0.482l2.814,1.238v5.771l0.032,0.157
		c0.324,3.518,8.045,3.79,10.404,3.79c2.361,0,10.079-0.273,10.407-3.79l0.029-0.312v-5.738l4.5-1.977
		c0.656-0.288,1.084-0.932,1.084-1.642c0-0.709-0.426-1.354-1.084-1.645L54.779,0.156c-0.473-0.208-1.018-0.208-1.49,0L38.964,6.453
		C38.306,6.742,37.882,7.386,37.882,8.094z M41.263,16.487l0.418,3.227H39.21l0.417-3.227H41.263z M54.166,19.975
		c-5.034,0-8.834-1.05-8.834-2.444c0.002-0.196,0.039-0.323,0.108-0.459l0.166-0.316l0.314,0.175
		c1.789,1.003,4.886,1.602,8.285,1.602c0.774,0,1.554-0.033,2.304-0.095c0.253-0.021,0.443-0.242,0.419-0.492
		c-0.021-0.231-0.22-0.414-0.456-0.414c-0.762,0.063-1.512,0.094-2.269,0.094c-3.674,0-5.932-0.673-6.952-1.075l-0.871-0.343
		l0.888-0.298c1.66-0.561,4.173-0.883,6.895-0.883c2.745,0,5.268,0.327,6.933,0.896l0.887,0.302l-0.872,0.339
		c-0.316,0.123-0.655,0.239-1.027,0.344c-0.274,0.077-0.57,0.151-0.876,0.219c-0.245,0.054-0.403,0.296-0.346,0.541
		c0.053,0.24,0.318,0.393,0.544,0.343c0.322-0.07,0.633-0.149,0.931-0.233c0.81-0.227,1.514-0.504,2.095-0.822l0.329-0.178
		l0.155,0.335c0.056,0.121,0.085,0.24,0.085,0.356C62.982,18.928,59.187,19.975,54.166,19.975z M62.999,15.034l-0.497-0.239
		c-2.442-1.173-6.269-1.348-8.336-1.348c-2.064,0-5.893,0.176-8.33,1.347l-0.5,0.239v-3.431c0-1.392,3.796-2.443,8.833-2.443
		s8.833,1.05,8.833,2.443L62.999,15.034L62.999,15.034z M54.034,1.557l14.873,6.54l-4.75,2.085l-0.171-0.195
		c-1.877-2.171-7.492-2.406-9.82-2.406c-2.367,0-8.07,0.243-9.877,2.49l-0.168,0.209L39.16,8.094L54.034,1.557z"/>
	<path d="M46.957,79.945l0.205,0.178l-0.002,0.27c-0.01,1.469,0.473,2.754,1.391,3.717c0.516,0.541,1.186,0.984,1.951,1.289
		l0.254,0.09c0.664,0.232,1.705,0.48,2.224,0.48c0.558,0,1.578-0.248,2.285-0.502l0.235-0.104c0.735-0.307,1.368-0.732,1.878-1.264
		c0.94-0.988,1.438-2.312,1.431-3.826l-0.002-0.285l0.225-0.178c3.745-2.93,8.433-6.105,14.844-7.436l0.277-0.059l-0.095-0.264
		c-1.022-2.824-2.573-5.15-4.074-7.289l-0.179-0.256l0.113-0.293c1.018-2.562,2.643-7.569,2.076-12.274
		c-0.298-2.451-1.562-3.916-3.381-3.916c-0.534,0-1.104,0.122-1.702,0.357c-4.683,1.848-7.987,6.59-10.067,9.997l-0.205,0.331
		L56.25,58.66c-1.922-0.264-4.325-0.259-6.536,0.011l-0.383,0.046l-0.199-0.327c-3.275-5.35-6.57-8.625-10.071-10.006
		c-0.625-0.248-1.562-0.427-2.229-0.427c-0.354,0-0.622,0.05-0.799,0.147c-3.619,1.985-2.25,9.984,0.021,16.231l0.111,0.302
		l-0.201,0.256c-1.674,2.109-3.034,4.519-4.049,7.156l-0.102,0.266l0.28,0.061C37.618,73.574,42.343,75.98,46.957,79.945z
		 M35.109,70.184c1.07-2.328,2.729-4.016,4.482-5.806c0.605-0.615,1.211-1.231,1.787-1.875l0.083-0.092l-0.027-0.121
		c-0.077-0.37-0.328-0.578-0.531-0.742l-0.197-0.176l-0.206-0.008c-0.869,0-1.412,0.529-1.889,0.997l-0.708,0.692l-0.333-0.894
		c-1.267-4.221-2.241-8.533-0.814-11.497l0.227-0.471l0.5,0.167c5.265,1.756,7.861,6.005,10.614,10.503l0.083,0.138l0.166-0.022
		c1.187-0.165,2.974-0.264,4.777-0.264c1.77,0,3.314,0.093,4.341,0.263l0.095,0.016l0.082-0.049c0.842-0.525,1.195-1.373,1.54-2.192
		c0.189-0.448,0.363-0.862,0.612-1.245c1.663-2.565,5.519-6.125,8.607-7.336l0.533-0.207l0.232,0.511
		c1.689,3.679-0.155,9.709-0.763,11.689l-0.262,0.861l-0.813-0.686c-0.523-0.457-1.068-0.931-1.675-0.931
		c-0.406,0-0.77,0.218-1.08,0.645l-0.088,0.12l0.067,0.133c0.547,1.063,1.417,1.824,2.256,2.561
		c0.511,0.445,1.037,0.904,1.484,1.431c0.843,0.998,1.587,2.135,2.483,3.789l0.323,0.59l-0.638,0.236
		c-4.266,1.58-7.714,3.367-10.544,5.467l-0.905,0.674l-0.049-1.115c-0.141-3.318,0.678-5.234,2.66-6.219
		c0.217-0.107,0.508-0.188,0.767-0.254c0.972-0.26,1.52-0.557,1.443-1.303c-0.06-0.586-0.449-0.912-1.094-0.912
		c-0.903,0-2.212,0.645-2.843,1.021c-0.809,0.498-1.928,1.535-2.314,2.289c-0.81,1.586-0.821,3.859-0.831,6.059
		c-0.015,3.119-0.132,5.408-1.524,6.498c-0.294,0.176-0.76,0.408-0.868,0.455l-0.812,0.346l-0.02-0.871
		c-0.013-0.527,0.231-0.908,0.486-1.316c0.285-0.447,0.553-0.869,0.421-1.424c-0.126-0.527-0.7-0.871-1.466-0.871
		c-0.719,0-1.277,0.293-1.426,0.75c-0.189,0.58,0.081,0.996,0.371,1.439c0.254,0.395,0.52,0.799,0.514,1.371l-0.01,0.92
		l-0.844-0.396c-0.094-0.045-0.507-0.252-0.772-0.396l-0.086-0.057c-1.311-1.041-1.43-2.982-1.463-6.057
		c-0.013-1.021-0.023-2.061-0.103-3.145c-0.185-2.531-1.648-4.771-2.931-5.594c-0.43-0.256-1.931-1.01-2.982-1.01
		c-0.344,0-0.939,0.094-1.099,0.717c-0.198,0.764,0.944,1.404,2.581,2.227c0.808,0.408,1.111,0.568,1.252,0.691l0.07,0.072
		c0.955,1.172,0.94,2.496,0.92,4.174l-0.006,1.855l-0.937-0.65c-2.553-1.771-6.06-3.982-10.549-5.363l-0.641-0.195L35.109,70.184z"
		/>
	<path d="M105.999,72.615c-0.044-3.633-2.236-7.391-5.448-9.349l-0.684-0.416l0.682-0.415c3.214-1.961,5.406-5.717,5.45-9.347
		c0.079-6.225-3.229-8.925-6.338-10.966l-0.215-0.139l-0.009-0.251c-0.187-5.491-2.083-8.423-7.812-12.065l-7.147-4.548l0.887-0.354
		c0.973-0.384,1.845-0.97,2.591-1.741c1.569-1.619,2.422-3.9,2.346-6.256c-0.076-2.328-1.093-4.506-2.858-6.133
		c-2.023-1.864-4.79-2.852-7.743-2.737c-5.785,0.199-9.95,5.733-10.073,10.574c-0.057,2.354,0.419,4.396,1.45,6.239l0.406,0.725
		h-36.96l0.405-0.724c1.031-1.849,1.506-3.89,1.446-6.24c-0.118-4.842-4.284-10.374-10.07-10.574
		c-2.899-0.089-5.761,0.913-7.742,2.737c-1.764,1.626-2.779,3.803-2.857,6.133c-0.08,2.357,0.775,4.638,2.347,6.26
		c0.744,0.768,1.615,1.353,2.586,1.737l0.889,0.354l-7.149,4.548C8.65,33.306,6.751,36.239,6.562,41.73l-0.01,0.251L6.34,42.121
		c-3.108,2.045-6.417,4.747-6.338,10.968c0.045,3.632,2.233,7.388,5.45,9.347l0.683,0.415l-0.683,0.415
		c-3.216,1.958-5.405,5.716-5.45,9.349c-0.08,6.221,3.229,8.92,6.337,10.965l0.212,0.139l0.01,0.252
		c0.19,5.49,2.087,8.426,7.814,12.066l7.153,4.553l-0.893,0.35c-0.968,0.383-1.838,0.967-2.584,1.74
		c-1.572,1.619-2.43,3.902-2.349,6.26c0.078,2.328,1.093,4.506,2.857,6.129c1.892,1.742,4.569,2.744,7.348,2.744l0.412-0.004
		c4.677-0.16,8.095-3.805,9.401-7.346l0.209-0.568l12.318,7.631l-0.113,0.359c-0.522,1.643-0.812,3.158-0.812,4.279
		c0,3.77,2.574,6.836,5.742,6.836c3.163,0,5.736-3.066,5.736-6.836c0-1.145-0.283-2.697-0.799-4.371l-0.106-0.355l12.174-7.541
		l0.21,0.568c1.305,3.541,4.724,7.184,9.42,7.344l0.393,0.002c2.774,0,5.455-0.998,7.347-2.742c1.768-1.625,2.783-3.805,2.858-6.129
		c0.078-2.359-0.776-4.639-2.346-6.262c-0.744-0.768-1.616-1.352-2.59-1.74l-0.89-0.35l7.151-4.551
		c5.728-3.645,7.626-6.576,7.812-12.064l0.009-0.25l0.213-0.141C102.77,81.537,106.078,78.838,105.999,72.615z M103.791,53.063
		c-0.051,4-3.495,8.559-8.356,8.7l-0.236,0.005c-2.06,0-4.048-0.751-5.446-2.058c-1.409-1.311-2.176-3.066-2.227-5.08
		c-0.085-3.298,2.225-6.013,5.254-6.179c1.017-0.054,1.879,0.129,2.606,0.525l0.1,0.062c0.219,0.121,0.423,0.267,0.606,0.43
		c0.819,0.731,1.298,1.812,1.353,3.04c0.025,0.613-0.2,1.589-0.926,2.323c-0.437,0.442-1.08,0.731-1.812,0.824l-0.04,2.187
		c1.438-0.106,2.537-0.585,3.432-1.491c1.214-1.23,1.6-2.839,1.552-3.934c-0.075-1.815-0.814-3.435-2.072-4.558
		c-0.324-0.292-0.689-0.55-1.079-0.769l-10.935-6.924c-4.027-2.55-5.721-3.923-6.247-7.289l-0.169-1.067l17.855,11.214
		C100.686,45.328,103.863,47.316,103.791,53.063z M90.419,62.846l-0.675,0.415c-0.469,0.291-0.938,0.644-1.387,1.047l-0.832,0.747
		v-4.411l0.832,0.75c0.436,0.392,0.897,0.74,1.385,1.038L90.419,62.846z M87.525,48.61v-4.617l3.808,2.409l-0.916,0.346
		c-0.735,0.279-1.437,0.684-2.08,1.205L87.525,48.61z M87.525,77.092l0.813,0.658c0.635,0.518,1.335,0.922,2.078,1.203l0.914,0.346
		l-3.802,2.412v-4.619H87.525z M79.771,10.073l0.213-0.002c2.326,0,4.438,0.765,5.949,2.153c1.352,1.245,2.096,2.841,2.157,4.616
		c0.06,1.774-0.573,3.48-1.734,4.682c-0.952,0.983-2.157,1.533-3.394,1.548c-1.021,0-1.966-0.23-2.724-0.649l-0.245-0.154
		c-0.195-0.127-0.38-0.253-0.544-0.41c-0.613-0.595-0.909-1.341-0.911-2.281c-0.011-1.55,1.026-2.502,2.862-2.655l-0.016-2.18
		c-3.504,0.225-5.067,2.548-5.059,4.844c0.008,1.51,0.55,2.832,1.569,3.824c0.188,0.182,0.4,0.348,0.617,0.504l0.062,0.042
		c0.163,0.117,0.336,0.226,0.512,0.327l11.341,7.215c4.316,2.743,5.974,4.754,6.565,7.966l0.203,1.101L79.712,29.585
		c-3.946-2.472-8.028-5.027-7.877-11.062C71.928,14.737,75.417,10.222,79.771,10.073z M73.331,27.612l0.146,0.137
		c0.879,0.833,1.906,1.63,3.229,2.505l0.213,0.14l0.009,0.251c0.173,5.875,1.831,7.796,7.447,11.353l0.945,0.595v40.516
		l-0.945,0.598c-5.613,3.549-7.274,5.469-7.447,11.342l-0.009,0.256l-23.703,15.012l-0.189-0.102l-0.201,0.125L29.087,95.309
		l-0.009-0.256c-0.178-5.873-1.835-7.793-7.446-11.346l-0.948-0.604V42.596l0.948-0.598c5.613-3.557,7.27-5.478,7.446-11.354
		l0.008-0.252l0.211-0.14c1.325-0.878,2.35-1.673,3.226-2.504l0.146-0.138L73.331,27.612L73.331,27.612z M9.007,39.461
		c0.596-3.211,2.252-5.222,6.567-7.964l11.169-7.105c0.54-0.299,0.988-0.623,1.358-0.981c1.023-0.995,1.566-2.316,1.572-3.825
		c0.009-2.294-1.558-4.619-5.058-4.844l-0.015,2.18c1.833,0.156,2.868,1.105,2.863,2.658c-0.002,0.938-0.302,1.684-0.912,2.278
		c-0.098,0.094-0.201,0.179-0.314,0.262l-0.406,0.262c-0.776,0.421-1.749,0.661-2.772,0.69c-1.255-0.014-2.459-0.565-3.413-1.546
		c-1.163-1.201-1.796-2.911-1.737-4.685c0.061-1.776,0.807-3.372,2.161-4.615c1.486-1.369,3.65-2.153,5.938-2.153l0.21,0.002
		c4.363,0.149,7.853,4.665,7.944,8.45c0.151,6.036-3.932,8.592-7.875,11.062L8.804,40.562L9.007,39.461z M2.209,53.063
		c-0.074-5.742,3.104-7.731,6.781-10.035l17.86-11.216l-0.167,1.068c-0.528,3.365-2.22,4.738-6.244,7.288L9.513,47.084
		c-0.411,0.227-0.769,0.482-1.093,0.773c-1.258,1.125-1.993,2.744-2.071,4.559c-0.048,1.095,0.335,2.704,1.553,3.934
		c0.848,0.855,2.025,1.365,3.431,1.487l-0.037-2.176c-0.749-0.085-1.354-0.368-1.812-0.83c-0.726-0.735-0.953-1.71-0.926-2.323
		c0.051-1.231,0.532-2.312,1.35-3.04c0.206-0.184,0.433-0.344,0.679-0.477c0.746-0.408,1.633-0.586,2.628-0.541
		c3.037,0.165,5.345,2.879,5.262,6.181c-0.05,2.012-0.819,3.77-2.225,5.081c-1.4,1.306-3.37,2.057-5.406,2.057l-0.279-0.007
		C5.706,61.624,2.261,57.065,2.209,53.063z M18.474,43.993v4.617l-0.811-0.657c-0.641-0.519-1.34-0.923-2.081-1.204l-0.917-0.345
		L18.474,43.993z M18.474,60.646v4.41l-0.83-0.749c-0.444-0.399-0.912-0.751-1.387-1.042l-0.678-0.415l0.676-0.415
		c0.486-0.299,0.953-0.65,1.388-1.039L18.474,60.646z M2.209,72.641c0.051-3.992,3.484-8.545,8.331-8.701l0.219,0.003
		c2.12,0.002,4.076,0.729,5.491,2.047c1.406,1.311,2.175,3.068,2.225,5.082c0.083,3.303-2.225,6.016-5.257,6.176
		c-1.006,0.053-1.872-0.125-2.604-0.521l-0.091-0.057c-0.228-0.131-0.437-0.277-0.616-0.436c-0.818-0.73-1.3-1.811-1.351-3.039
		c-0.027-0.613,0.2-1.59,0.926-2.324c0.462-0.467,1.071-0.744,1.811-0.83l0.04-2.184c-1.38,0.1-2.558,0.611-3.432,1.494
		C6.683,70.58,6.3,72.189,6.348,73.287c0.079,1.814,0.813,3.434,2.071,4.562c0.318,0.281,0.675,0.535,1.065,0.754l10.953,6.936
		c4.026,2.547,5.718,3.918,6.244,7.287l0.169,1.07L8.995,82.678C5.316,80.373,2.135,78.383,2.209,72.641z M18.474,77.094v4.613
		l-3.805-2.408l0.916-0.346c0.739-0.277,1.438-0.684,2.08-1.201L18.474,77.094z M26.227,115.629
		c-0.144,0.01-0.293,0.012-0.444,0.012c-2.137,0-4.218-0.787-5.712-2.162c-1.353-1.246-2.099-2.842-2.16-4.613
		c-0.059-1.775,0.575-3.486,1.739-4.686c0.953-0.982,2.158-1.531,3.393-1.545h0.015c1.046,0.021,1.987,0.25,2.722,0.656l0.208,0.131
		c0.177,0.109,0.384,0.248,0.565,0.424c0.604,0.584,0.913,1.35,0.914,2.277c0.005,1.555-1.029,2.504-2.863,2.658l0.015,2.18
		c3.501-0.221,5.067-2.545,5.059-4.842c-0.006-1.514-0.549-2.834-1.574-3.824c-0.189-0.18-0.396-0.35-0.61-0.504l-0.081-0.057
		c-0.167-0.115-0.328-0.219-0.499-0.314l-11.337-7.213c-4.316-2.744-5.973-4.756-6.566-7.969l-0.203-1.102l17.483,10.98
		c3.945,2.471,8.027,5.025,7.876,11.066C34.071,110.969,30.585,115.482,26.227,115.629z M49.288,114.939l-0.238,0.506l-12.693-7.863
		l0.013-0.281c0.041-1.502-0.125-2.818-0.506-4.094l-0.375-1.256l15.635,9.902l-0.298,0.412
		C50.282,113.021,49.765,113.922,49.288,114.939z M53.066,126.82c-1.914,0-3.532-2.135-3.532-4.66c0-2.547,1.708-6.824,3.181-8.803
		l0.393-0.531l0.404,0.529c1.394,1.828,3.083,6.166,3.083,8.807C56.595,124.686,54.977,126.82,53.066,126.82z M70.137,103.211
		c-0.38,1.271-0.546,2.588-0.513,4.023l0.01,0.279l-0.232,0.221l-12.284,7.611l-0.236-0.506c-0.482-1.027-1-1.922-1.549-2.654
		l-0.312-0.418l15.493-9.816L70.137,103.211z M96.993,86.242c-0.592,3.209-2.247,5.221-6.565,7.965l-11.341,7.213
		c-0.183,0.109-0.338,0.209-0.493,0.312l-0.085,0.057c-0.215,0.158-0.422,0.324-0.612,0.506c-1.023,0.994-1.567,2.312-1.572,3.82
		c-0.012,2.297,1.554,4.625,5.058,4.846l0.016-2.18c-1.836-0.154-2.873-1.105-2.862-2.66c0.002-0.928,0.312-1.695,0.915-2.277
		c0.179-0.172,0.381-0.307,0.565-0.42l0.181-0.121c0.788-0.438,1.731-0.668,2.686-0.668c1.312,0.012,2.517,0.562,3.471,1.545
		c1.164,1.201,1.795,2.908,1.735,4.68c-0.061,1.771-0.807,3.371-2.158,4.617c-1.494,1.375-3.594,2.162-5.75,2.162
		c-0.141,0-0.277-0.004-0.417-0.012c-4.35-0.146-7.839-4.66-7.931-8.449c-0.15-6.037,3.932-8.592,7.884-11.062l17.479-10.977
		L96.993,86.242z M97.002,82.68L79.151,93.895l0.166-1.07c0.528-3.367,2.224-4.742,6.249-7.289l10.898-6.904
		c0.423-0.236,0.789-0.496,1.115-0.785c1.258-1.127,1.997-2.746,2.072-4.562c0.048-1.098-0.338-2.705-1.552-3.932
		c-0.898-0.91-2.084-1.426-3.434-1.504l0.041,2.189c0.764,0.078,1.332,0.35,1.808,0.834c0.727,0.73,0.956,1.707,0.93,2.32
		c-0.054,1.232-0.532,2.312-1.352,3.041c-0.173,0.158-0.38,0.303-0.628,0.443c-0.813,0.443-1.685,0.613-2.681,0.572
		c-3.035-0.162-5.345-2.875-5.26-6.178c0.051-2.012,0.817-3.768,2.227-5.078c1.415-1.324,3.337-2.051,5.399-2.051l0.281-0.001
		c4.872,0.155,8.308,4.708,8.358,8.701C103.863,78.385,100.684,80.375,97.002,82.68z"/>
	<path d="M25.847,44.048l-1.357,0.841v36.042l0.587,0.309c5.114,2.662,7.301,5.834,7.801,11.318l0.048,0.541l20.073,12.23
		L73.078,93.1l0.053-0.543c0.497-5.482,2.681-8.654,7.796-11.316l0.585-0.307V44.89l-1.362-0.844
		c-3.521-2.153-7.161-4.384-7.416-11.176l-0.04-1.047H33.305l-0.038,1.047C33.01,39.664,29.369,41.893,25.847,44.048z
		 M35.364,34.433l0.049-0.436h35.174l0.049,0.436c0.763,6.817,4.792,9.284,8.349,11.463l0.232,0.142l0.006,0.274l0.081,33.319
		l-0.253,0.141c-4.96,2.811-7.363,6.346-8.043,11.818l-0.025,0.232l-17.981,10.951L35.023,91.818l-0.028-0.234
		c-0.681-5.467-3.087-9-8.044-11.812l-0.251-0.141V46.085l0.239-0.143C30.395,43.828,34.599,41.251,35.364,34.433z"/>
</g>
</svg>
