<?xml version="1.0" encoding="utf-8"?>
<!-- Generator: Adobe Illustrator 15.0.0, SVG Export Plug-In . SVG Version: 6.00 Build 0)  -->
<!DOCTYPE svg PUBLIC "-//W3C//DTD SVG 1.1//EN" "http://www.w3.org/Graphics/SVG/1.1/DTD/svg11.dtd">
<svg version="1.1" id="Layer_1" xmlns="http://www.w3.org/2000/svg" xmlns:xlink="http://www.w3.org/1999/xlink" x="0px" y="0px"
	 width="117px" height="35px" viewBox="0 0 117 35" enable-background="new 0 0 117 35" xml:space="preserve">
<g>
	<g>
		<path fill="#FFFFFF" d="M6.216,22.815C2.244,22.815,0,19.013,0,13.278c0-6.105,4.07-13.59,10.448-13.59
			c2.308,0,4.07,1.439,4.07,3.803c0,3.346-3.877,6.195-6.664,6.195c-0.769,0-1.412-0.461-1.412-1.473
			c0-0.43,0.126-1.104,0.352-1.104c0.224,0,0.289,0.31,1.218,0.31c1.633,0,3.975-1.812,3.975-3.771c0-0.707-0.48-1.719-1.956-1.719
			c-4.006,0-7.373,5.949-7.373,11.317c0,4.415,1.571,7.177,3.621,7.177c3.271,0,4.937-4.231,4.937-6.746
			c0-0.311-0.063-0.802-0.063-1.016c0-0.582,0.481-0.611,1.024-0.611c0.579,0,1.669,0.489,1.669,1.166
			c-0.161,1.653-0.193,3.096-0.193,4.631c0,1.438,0.033,2.944,0.033,4.815c0.609-0.094,1.185-0.125,1.699-0.151
			c1.506-0.095,0.705,2.391-0.416,2.422c-0.48,0-0.898,0.031-1.348,0.062c-0.159,3.437-0.928,7.453-4.677,7.453
			c-2.181,0-3.59-1.565-3.59-3.619c0-3.127,2.917-4.784,5.896-5.646v-0.305c0-1.318-0.063-2.33-0.063-3.068
			C9.837,21.712,8.171,22.815,6.216,22.815z M11.153,25.454c-2.115,0.645-3.3,1.776-3.3,3.311c0,0.922,0.512,1.32,1.153,1.32
			C10.448,30.085,10.992,27.906,11.153,25.454z"/>
		<path fill="#FFFFFF" d="M19.517,18.95c0-1.963,0.576-4.143,1.602-6.777h-2.436h-0.352c-0.032,1.194-0.224,3.865-0.801,5.644
			c-0.418,1.289-2.083,0.185-1.795-0.858c0.353-1.226,0.481-3.771,0.514-5.337c-0.801-0.43-1.38-1.071-1.38-1.964
			c0-0.857,0.769-1.409,1.603-1.409c0.769,0,1.667,0.37,2.019,1.624c1.059,0.124,1.379,0.124,1.698,0.124h1.667
			c0.386,0,1.669,1.013,1.538,1.72c0,0.366-1.442,3.985-1.442,7.055c0,0.859,0.416,1.654,1.283,1.654
			c1.474,0,2.02-1.963,2.309-3.312c0.126-0.646,0.448-0.921,0.77-0.921c0.512,0,1.122,0.675,1.122,1.257
			c0,0.094-0.032,0.151-0.032,0.215c-0.577,2.026-1.826,4.783-4.583,4.783C21.31,22.445,19.517,21.648,19.517,18.95z"/>
		<path fill="#FFFFFF" d="M28.294,18.521c0.448,1.042,1.314,1.899,2.982,1.899c2.5,0,3.527-1.994,3.912-3.863
			c0.287-1.379,2.082-0.769,1.954,0.308c-0.226,1.871-1.507,5.58-6.218,5.58c-2.918,0-5.672-2.237-5.672-6.071
			c0-3.896,2.438-6.809,4.903-6.809c1.796,0,2.884,1.257,2.884,3.097C33.039,14.933,31.407,17.632,28.294,18.521z M27.911,16.835
			c1.601-0.707,2.628-2.304,2.628-4.142c0-0.677-0.254-1.074-0.674-1.074c-1.571,0-2.05,3.373-1.986,4.661
			C27.879,16.468,27.911,16.651,27.911,16.835z"/>
		<path fill="#FFFFFF" d="M46.404,17.111c0.127-0.646,0.449-0.921,0.769-0.921c0.512,0,1.122,0.675,1.122,1.257
			c0,0.03,0,0.094-0.032,0.215c-0.546,2.026-1.827,4.783-4.581,4.783c-1.123,0-1.989-0.521-2.47-1.254
			c-0.641,0.702-1.539,1.254-2.756,1.254c-2.5,0-3.815-2.022-3.815-4.631c0-5.121,3.718-8.249,7.629-8.249
			c0.865,0,1.475,0.49,1.475,1.287c0,0.521-0.096,0.707-0.416,0.707c-0.289,0-0.609-0.062-0.932-0.062
			c-2.434,0-5.288,1.992-5.288,6.411c0,1.593,0.705,2.515,1.828,2.515c0.865,0,1.442-0.732,1.795-1.598v-4.72
			c0-0.585-0.129-0.771-0.129-0.983c0-0.306,0.385-0.52,0.836-0.52c1.054,0,1.728,0.613,1.728,1.347v5.063
			c0,0.676,0.322,1.408,1.091,1.408C45.539,20.423,46.114,18.46,46.404,17.111z"/>
		<path fill="#FFFFFF" d="M45.89,7.265V2.079c0-0.89-0.322-0.951-0.322-1.167c0-0.214,0.575-0.336,1.027-0.336
			c1.056,0,1.729,0.613,1.729,1.353v5.362c1.954,0,4.198-0.026,6.378-0.118c0.899-0.923,0.61,2.021-0.222,2.053
			c-2.563,0.062-4.455,0.062-6.156,0.062v9.726c0,0.979,0.416,1.41,1.091,1.41c1.283,0,1.858-1.963,2.147-3.312
			c0.126-0.646,0.448-0.921,0.769-0.921c0.511,0,1.122,0.675,1.122,1.257c0,0.029,0,0.094-0.033,0.215
			c-0.547,2.025-1.828,4.783-4.583,4.783c-1.731,0-2.947-0.979-2.947-3.4V9.287c-1.412,0-2.213-0.062-2.213-0.062
			c-1.025,0-1.603-2.053-0.673-2.053C43.003,7.173,44.158,7.234,45.89,7.265z"/>
		<path fill="#FFFFFF" d="M64.026,5.517c0-0.586-0.129-0.771-0.129-0.983c0-0.306,0.386-0.521,0.833-0.521
			c1.06,0,1.796,0.612,1.796,1.348v11.38c0,2.948,1.024,4.11,2.916,4.11c1.796,0,3.143-1.352,3.143-3.127
			c0-2.76-2.211-3.59-4.23-3.59c-0.579,0-1.122-2.303-0.16-2.303c1.505,0,5.191-0.947,5.191-5.396c0-2.33-1.569-4.726-5.51-4.726
			c-5.16,0-7.246,3.253-7.246,6.996c0,2.697,1.154,3.649,1.217,3.739c0.354-0.09,0.481,0.125,0.481,0.43
			c0,0.555-0.865,2.576-1.794,1.905c-0.515-0.462-2.341-2.306-2.341-5.894c0-5.732,3.941-9.479,9.647-9.479
			c4.841,0,8.014,2.607,8.014,6.961c0,3.346-1.796,5.402-4.135,6.598c1.86,0.521,3.366,2.055,3.366,4.692
			c0,3.067-2.437,5.306-5.607,5.306c-4.201,0-5.452-2.545-5.452-6.314V5.517L64.026,5.517z"/>
		<path fill="#FFFFFF" d="M80.403,18.95c0-1.963,0.576-4.143,1.6-6.777h-2.435h-0.354c-0.032,1.194-0.225,3.865-0.802,5.644
			c-0.414,1.289-2.083,0.185-1.794-0.858c0.35-1.226,0.48-3.771,0.512-5.337c-0.803-0.43-1.377-1.071-1.377-1.964
			c0-0.857,0.768-1.409,1.6-1.409c0.77,0,1.67,0.37,2.022,1.624c1.058,0.124,1.376,0.124,1.696,0.124h1.67
			c0.382,0,1.665,1.013,1.538,1.72c0,0.366-1.442,3.985-1.442,7.055c0,0.859,0.416,1.654,1.283,1.654
			c1.475,0,2.019-1.963,2.308-3.312c0.127-0.646,0.45-0.921,0.769-0.921c0.512,0,1.122,0.675,1.122,1.257
			c0,0.094-0.032,0.151-0.032,0.215c-0.578,2.026-1.828,4.783-4.586,4.783C82.197,22.445,80.403,21.648,80.403,18.95z"/>
		<path fill="#FFFFFF" d="M97.771,17.111c0.128-0.646,0.452-0.921,0.769-0.921c0.513,0,1.121,0.675,1.121,1.257
			c0,0.03,0,0.094-0.032,0.215c-0.545,2.026-1.825,4.783-4.583,4.783c-1.123,0-1.983-0.521-2.467-1.254
			c-0.639,0.702-1.54,1.254-2.757,1.254c-2.503,0-3.812-2.022-3.812-4.631c0-5.121,3.718-8.249,7.629-8.249
			c0.865,0,1.474,0.49,1.474,1.287c0,0.521-0.097,0.707-0.418,0.707c-0.286,0-0.609-0.062-0.928-0.062
			c-2.438,0-5.29,1.992-5.29,6.411c0,1.593,0.706,2.515,1.826,2.515c0.867,0,1.444-0.732,1.799-1.598v-4.72
			c0-0.585-0.131-0.771-0.131-0.983c0-0.306,0.386-0.52,0.835-0.52c1.059,0,1.729,0.613,1.729,1.347v5.063
			c0,0.676,0.321,1.408,1.091,1.408C96.908,20.423,97.484,18.46,97.771,17.111z"/>
		<path fill="#FFFFFF" d="M97.673,4.964c0-1.074,0.866-1.871,1.923-1.871c1.123,0,1.955,0.797,1.955,1.871
			c0,1.01-0.832,1.873-1.955,1.873C98.539,6.837,97.673,5.974,97.673,4.964z M100.335,19.013c0,0.271,0,1.408,0.832,1.408
			c1.283,0,1.858-1.964,2.15-3.312c0.384-1.873,2.111-0.435,1.856,0.551c-0.578,2.024-1.824,4.783-4.584,4.783
			c-1.698,0-2.692-1.315-2.692-2.884v-8.188c0-0.582-0.128-0.766-0.128-0.979c0-0.305,0.386-0.521,0.834-0.521
			c1.059,0,1.731,0.616,1.731,1.352V19.013L100.335,19.013z"/>
		<path fill="#FFFFFF" d="M103.442,11.373c0-0.582-0.129-0.766-0.129-0.979c0-0.305,0.383-0.521,0.834-0.521
			c1.057,0,1.73,0.616,1.73,1.352v1.383c0.865-1.719,2.021-3.037,3.59-3.037c2.147,0,2.659,1.688,2.659,3.097v6.351
			c0,0.273,0,1.41,0.835,1.41c1.285,0,1.858-1.963,2.149-3.312c0.124-0.646,0.446-0.921,0.768-0.921
			c0.512,0,1.121,0.675,1.121,1.257c0,0.031,0,0.095-0.031,0.215c-0.544,2.026-1.827,4.783-4.585,4.783
			c-1.698,0-2.689-1.315-2.689-2.882v-6.229c0-0.947-0.065-1.748-0.675-1.748c-0.932,0-2.917,2.641-3.141,5.062v4.479
			c0,0.582,0.029,1.315-0.897,1.315c-0.639,0-1.538-0.212-1.538-1.349L103.442,11.373L103.442,11.373z"/>
	</g>
</g>
<g>
	<path fill="#FFFFFF" d="M20.622,32.853h-1.829v1.351h2.174v0.728h-3.164v-4.724h3.159v0.731h-2.169v1.187h1.829L20.622,32.853
		L20.622,32.853z"/>
	<path fill="#FFFFFF" d="M22.635,34.929v-4.724h1.72c0.605,0,1.102,0.187,1.491,0.556c0.391,0.369,0.587,0.842,0.587,1.418v0.779
		c0,0.58-0.196,1.055-0.587,1.42c-0.389,0.366-0.886,0.551-1.491,0.551H22.635L22.635,34.929z M23.624,30.938v3.265h0.731
		c0.329,0,0.588-0.116,0.788-0.349c0.199-0.231,0.299-0.529,0.299-0.895v-0.787c0-0.359-0.1-0.658-0.299-0.891
		c-0.199-0.229-0.459-0.348-0.788-0.348h-0.731V30.938z"/>
	<path fill="#FFFFFF" d="M32.105,30.207V33.3c0,0.531-0.182,0.945-0.55,1.25c-0.368,0.299-0.846,0.448-1.433,0.448
		c-0.585,0-1.06-0.149-1.425-0.448c-0.366-0.305-0.544-0.719-0.544-1.25v-3.093h0.99V33.3c0,0.313,0.089,0.557,0.264,0.725
		c0.178,0.166,0.413,0.249,0.716,0.249c0.305,0,0.547-0.083,0.725-0.249c0.179-0.168,0.268-0.409,0.268-0.725v-3.093H32.105z"/>
	<path fill="#FFFFFF" d="M37.637,33.367l0.007,0.021c0.008,0.502-0.151,0.896-0.483,1.183C36.832,34.857,36.376,35,35.797,35
		c-0.592,0-1.072-0.182-1.434-0.546c-0.364-0.365-0.545-0.836-0.545-1.415v-0.937c0-0.575,0.177-1.045,0.532-1.41
		c0.353-0.368,0.821-0.553,1.396-0.553c0.602,0,1.07,0.145,1.409,0.422c0.339,0.283,0.503,0.68,0.497,1.189l-0.007,0.016h-0.962
		c0-0.301-0.075-0.525-0.228-0.674c-0.155-0.146-0.391-0.224-0.708-0.224c-0.296,0-0.526,0.113-0.693,0.343
		c-0.164,0.229-0.249,0.523-0.249,0.883v0.942c0,0.364,0.087,0.662,0.261,0.892c0.177,0.229,0.42,0.345,0.732,0.345
		c0.295,0,0.516-0.075,0.662-0.224c0.146-0.146,0.217-0.377,0.217-0.683H37.637L37.637,33.367z"/>
	<path fill="#FFFFFF" d="M41.895,33.91h-1.599l-0.332,1.021H38.93l1.663-4.724h1.013l1.656,4.724H42.23L41.895,33.91z M40.54,33.166
		h1.112l-0.544-1.661h-0.02L40.54,33.166z"/>
	<path fill="#FFFFFF" d="M47.848,30.938h-1.411v3.99H45.45v-3.99h-1.392v-0.731h3.79V30.938z"/>
	<path fill="#FFFFFF" d="M50.417,34.929h-0.988v-4.724h0.988V34.929z"/>
	<path fill="#FFFFFF" d="M56.358,32.995c0,0.58-0.189,1.061-0.571,1.438c-0.382,0.375-0.878,0.565-1.491,0.565
		c-0.61,0-1.105-0.19-1.483-0.567c-0.377-0.379-0.569-0.856-0.569-1.436v-0.852c0-0.576,0.189-1.057,0.567-1.438
		c0.377-0.378,0.87-0.566,1.477-0.566c0.614,0,1.111,0.188,1.496,0.566c0.386,0.381,0.576,0.859,0.576,1.438L56.358,32.995
		L56.358,32.995z M55.374,32.136c0-0.365-0.097-0.664-0.288-0.901c-0.192-0.236-0.458-0.354-0.798-0.354
		c-0.332,0-0.594,0.118-0.779,0.354c-0.188,0.237-0.279,0.536-0.279,0.901v0.857c0,0.374,0.092,0.678,0.281,0.912
		c0.188,0.234,0.449,0.354,0.785,0.354c0.337,0,0.603-0.117,0.792-0.354c0.19-0.234,0.285-0.538,0.285-0.912V32.136z"/>
	<path fill="#FFFFFF" d="M62.102,34.929h-0.987l-1.989-3.186l-0.02,0.005v3.181h-0.989v-4.724h0.989l1.989,3.185l0.02-0.004v-3.181
		h0.987V34.929z"/>
	<path fill="#FFFFFF" d="M69.253,33.697c0-0.183-0.067-0.328-0.196-0.437c-0.133-0.111-0.367-0.215-0.699-0.312
		c-0.567-0.164-1.001-0.359-1.294-0.58c-0.296-0.227-0.443-0.527-0.443-0.912c0-0.388,0.167-0.701,0.5-0.947
		c0.33-0.246,0.759-0.369,1.268-0.369c0.549,0,0.99,0.131,1.325,0.396c0.328,0.267,0.493,0.608,0.481,1.038l-0.009,0.021h-0.958
		c0-0.235-0.075-0.416-0.224-0.545c-0.15-0.127-0.359-0.188-0.626-0.188c-0.244,0-0.435,0.056-0.565,0.168
		c-0.135,0.108-0.201,0.255-0.201,0.433c0,0.158,0.072,0.291,0.216,0.393c0.146,0.104,0.396,0.213,0.749,0.326
		c0.544,0.146,0.959,0.34,1.242,0.576c0.284,0.234,0.429,0.549,0.429,0.937c0,0.401-0.167,0.722-0.496,0.957
		c-0.33,0.231-0.765,0.35-1.308,0.35c-0.532,0-0.988-0.128-1.37-0.38c-0.377-0.252-0.565-0.63-0.552-1.132l0.007-0.021h0.958
		c0,0.277,0.087,0.484,0.261,0.615c0.168,0.135,0.402,0.198,0.696,0.198c0.263,0,0.463-0.056,0.602-0.161
		C69.183,34.015,69.253,33.875,69.253,33.697z"/>
	<path fill="#FFFFFF" d="M74.762,32.853h-1.831v1.351h2.178v0.728h-3.167v-4.724h3.159v0.731h-2.17v1.187h1.831V32.853z"/>
	<path fill="#FFFFFF" d="M77.763,33.044v1.887h-0.99v-4.724h1.71c0.562,0,1.002,0.123,1.319,0.369
		c0.318,0.245,0.477,0.586,0.477,1.026c0,0.24-0.065,0.451-0.2,0.628c-0.135,0.176-0.33,0.317-0.588,0.426
		c0.29,0.083,0.501,0.22,0.628,0.412c0.129,0.192,0.192,0.43,0.192,0.714v0.348c0,0.131,0.02,0.271,0.059,0.411
		c0.036,0.146,0.099,0.253,0.19,0.32v0.067h-1.021c-0.093-0.069-0.149-0.185-0.175-0.342c-0.026-0.16-0.038-0.315-0.038-0.469
		v-0.333c0-0.233-0.067-0.418-0.202-0.549c-0.134-0.13-0.324-0.195-0.57-0.195h-0.79V33.044z M77.763,32.313h0.702
		c0.278,0,0.487-0.057,0.619-0.17c0.135-0.112,0.205-0.277,0.205-0.5c0-0.217-0.07-0.387-0.207-0.514
		c-0.136-0.131-0.334-0.191-0.6-0.191h-0.719L77.763,32.313L77.763,32.313z"/>
	<path fill="#FFFFFF" d="M83.785,33.647l0.059,0.26h0.021l0.061-0.247l1.072-3.453h1.043l-1.677,4.724h-1.019l-1.672-4.724h1.042
		L83.785,33.647z"/>
	<path fill="#FFFFFF" d="M88.544,34.929h-0.986v-4.724h0.986V34.929z"/>
	<path fill="#FFFFFF" d="M94.195,33.367l0.009,0.021c0.011,0.502-0.151,0.896-0.482,1.183C93.396,34.857,92.938,35,92.358,35
		c-0.592,0-1.071-0.182-1.433-0.546c-0.365-0.365-0.545-0.836-0.545-1.415v-0.937c0-0.575,0.176-1.045,0.532-1.41
		c0.354-0.368,0.818-0.553,1.396-0.553c0.6,0,1.068,0.145,1.411,0.422c0.339,0.283,0.502,0.68,0.494,1.189l-0.006,0.016h-0.964
		c0-0.301-0.073-0.525-0.229-0.674c-0.152-0.146-0.388-0.224-0.707-0.224c-0.297,0-0.526,0.113-0.692,0.343
		c-0.168,0.229-0.247,0.523-0.247,0.883v0.942c0,0.364,0.088,0.662,0.261,0.892c0.176,0.229,0.418,0.345,0.732,0.345
		c0.292,0,0.513-0.075,0.664-0.224c0.145-0.146,0.216-0.377,0.216-0.683H94.195L94.195,33.367z"/>
	<path fill="#FFFFFF" d="M98.702,32.853h-1.83v1.351h2.177v0.728h-3.165v-4.724h3.159v0.731h-2.171v1.187h1.83V32.853z"/>
</g>
</svg>
