<?xml version="1.0" encoding="utf-8"?>
<!-- Generator: Adobe Illustrator 15.0.0, SVG Export Plug-In . SVG Version: 6.00 Build 0)  -->
<!DOCTYPE svg PUBLIC "-//W3C//DTD SVG 1.1//EN" "http://www.w3.org/Graphics/SVG/1.1/DTD/svg11.dtd">
<svg version="1.1" id="Layer_1" xmlns="http://www.w3.org/2000/svg" xmlns:xlink="http://www.w3.org/1999/xlink" x="0px" y="0px"
	 width="41px" height="39px" viewBox="0 0 41 39" enable-background="new 0 0 41 39" xml:space="preserve">
<path fill-rule="evenodd" clip-rule="evenodd" fill="#EF7C44" d="M16.694,11.8c2.351-0.341,5.144-0.403,7.478,0
	c2.346-3.978,5.684-8.634,10.117-10.41c2.862-1.147,4.37,0.628,4.693,3.373c0.539,4.541-0.954,9.536-2.199,12.609
	c1.624,2.335,3.212,4.707,4.252,7.625c-6.3,1.325-10.873,4.375-15.104,7.771c0.462,7.675-11.461,7.644-10.997,0.147
	c-4.064-3.61-8.817-6.531-15.102-7.918c1.073-2.839,2.501-5.317,4.252-7.479C2.779,14.1-0.362,3.41,3.792,1.097
	C4.273,0.829,5.763,1.063,6.578,1.39C11.003,3.164,14.344,7.812,16.694,11.8z M36.344,2.563c-0.097,0-0.199,0-0.296,0
	c-3.304,1.087-7.38,4.944-9.089,7.624c-0.733,1.149-0.87,2.625-2.053,3.373c-2.301-0.385-6.775-0.327-9.091,0
	c-2.774-4.605-5.547-9.213-11.291-10.85c-2.3,3.574-0.293,9.886,0.734,13.343c0.98,0.029,1.439-1.673,2.933-1.613
	c0.229,0.211,0.51,0.369,0.586,0.733c-2.387,2.698-5.244,4.921-6.599,8.65c5.004,1.401,8.919,3.889,12.61,6.6
	c-0.255-2.796,0.418-4.95-1.027-6.745c-0.472-0.586-4.061-1.797-3.812-2.785c0.338-1.34,3.362,0.242,3.666,0.438
	c1.294,0.842,2.615,3.031,2.785,5.427c0.358,4.983-0.677,9.374,3.227,10.117c0.909-2.411-1.381-2.989-0.88-4.545
	c0.372-1.159,3.057-1.205,3.374,0.146c0.354,1.518-1.838,2.26-0.881,4.398c5.096-0.671,1.945-9.346,3.958-13.344
	c0.348-0.69,1.426-1.715,2.199-2.2c0.344-0.213,3.356-1.915,3.52-0.292c0.101,0.98-1.264,0.923-2.052,1.319
	c-2.734,1.376-3.041,4.328-2.64,8.064c3.473-2.931,7.751-5.055,12.464-6.745c-0.897-1.731-1.765-3.285-2.934-4.693
	c-1.156-1.388-2.82-2.284-3.666-3.957c1.211-1.688,2.594,1.095,3.519,1.026C36.712,12.508,38.539,6.255,36.344,2.563z"/>
</svg>
