<?xml version="1.0" encoding="utf-8"?>
<!-- Generator: Adobe Illustrator 15.0.0, SVG Export Plug-In . SVG Version: 6.00 Build 0)  -->
<!DOCTYPE svg PUBLIC "-//W3C//DTD SVG 1.1//EN" "http://www.w3.org/Graphics/SVG/1.1/DTD/svg11.dtd">
<svg version="1.1" id="Layer_1" xmlns="http://www.w3.org/2000/svg" xmlns:xlink="http://www.w3.org/1999/xlink" x="0px" y="0px"
	 width="117px" height="35px" viewBox="0 0 117 35" enable-background="new 0 0 117 35" xml:space="preserve">
<g>
	<path fill="none" d="M54.288,30.949c-0.332,0-0.594,0.115-0.779,0.348c-0.188,0.234-0.279,0.527-0.279,0.887v0.844
		c0,0.367,0.092,0.666,0.281,0.896c0.188,0.23,0.449,0.348,0.785,0.348c0.337,0,0.603-0.115,0.792-0.348
		c0.19-0.23,0.285-0.529,0.285-0.896v-0.844c0-0.359-0.097-0.652-0.288-0.887C54.894,31.064,54.628,30.949,54.288,30.949z"/>
	<path fill="none" d="M24.355,31.002h-0.731v0.004v3.211h0.731c0.329,0,0.588-0.113,0.788-0.344c0.199-0.227,0.299-0.52,0.299-0.879
		v-0.773c0-0.354-0.1-0.648-0.299-0.877C24.944,31.119,24.684,31.002,24.355,31.002z"/>
	<polygon fill="none" points="41.088,31.564 40.54,33.197 41.652,33.197 41.107,31.564 	"/>
	<path fill="none" d="M30.539,13.064c0-0.665-0.254-1.056-0.674-1.056c-1.571,0-2.05,3.317-1.986,4.583
		c0,0.185,0.032,0.365,0.032,0.546C29.512,16.442,30.539,14.872,30.539,13.064z"/>
	<path fill="none" d="M7.853,28.869c0,0.906,0.512,1.299,1.153,1.299c1.442,0,1.986-2.144,2.147-4.555
		C9.038,26.247,7.853,27.359,7.853,28.869z"/>
	<path fill="none" d="M78.482,31.006h-0.719v1.354h0.701c0.278,0,0.487-0.057,0.619-0.168c0.135-0.109,0.205-0.273,0.205-0.492
		c0-0.213-0.07-0.379-0.207-0.504C78.946,31.066,78.748,31.006,78.482,31.006z"/>
	<path fill="#010202" d="M15.384,22.719c-0.515,0.025-1.09,0.057-1.699,0.148c0-1.84-0.033-3.32-0.033-4.734
		c0-1.51,0.033-2.928,0.193-4.554c0-0.666-1.09-1.146-1.669-1.146c-0.542,0-1.024,0.028-1.024,0.601c0,0.21,0.063,0.693,0.063,0.999
		c0,2.473-1.666,6.634-4.937,6.634c-2.05,0-3.621-2.716-3.621-7.058c0-5.279,3.366-11.129,7.373-11.129
		c1.476,0,1.956,0.995,1.956,1.69c0,1.926-2.342,3.709-3.975,3.709c-0.929,0-0.994-0.305-1.218-0.305
		c-0.226,0-0.352,0.664-0.352,1.086c0,0.995,0.643,1.448,1.412,1.448c2.786,0,6.664-2.802,6.664-6.092
		c0-2.324-1.762-3.739-4.07-3.739C4.07,0.276,0,7.636,0,13.64c0,5.639,2.244,9.377,6.216,9.377c1.956,0,3.622-1.084,4.97-2.955
		c0,0.727,0.063,1.721,0.063,3.018v0.3c-2.979,0.847-5.896,2.476-5.896,5.552c0,2.02,1.41,3.559,3.59,3.559
		c3.749,0,4.518-3.949,4.677-7.329c0.45-0.03,0.868-0.062,1.348-0.062C16.089,25.07,16.891,22.626,15.384,22.719z M9.006,30.168
		c-0.641,0-1.153-0.393-1.153-1.299c0-1.51,1.185-2.622,3.3-3.256C10.992,28.024,10.448,30.168,9.006,30.168z"/>
	<path fill="#010202" d="M53.452,17.739c0-0.572-0.61-1.236-1.122-1.236c-0.321,0-0.643,0.27-0.769,0.906
		c-0.289,1.328-0.865,3.258-2.147,3.258c-0.675,0-1.091-0.424-1.091-1.387V9.715c1.701,0,3.592,0,6.156-0.061
		c0.833-0.032,1.121-2.926,0.222-2.019c-2.18,0.09-4.424,0.116-6.378,0.116V2.479c0-0.727-0.673-1.33-1.729-1.33
		c-0.452,0-1.027,0.12-1.027,0.33c0,0.212,0.322,0.273,0.322,1.148v5.099c-1.732-0.03-2.887-0.09-2.888-0.09
		c-0.93,0-0.352,2.019,0.673,2.019c0,0,0.801,0.061,2.213,0.061v9.41c-0.351,0.842-0.862,1.54-1.63,1.539
		c-0.769,0-1.091-0.721-1.091-1.385V14.3c0-0.721-0.674-1.325-1.728-1.325c-0.452,0-0.836,0.211-0.836,0.511
		c0,0.209,0.129,0.392,0.129,0.967v4.641c-0.353,0.851-0.93,1.571-1.795,1.571c-1.123,0-1.828-0.906-1.828-2.473
		c0-4.346,2.854-6.305,5.288-6.305c0.322,0,0.643,0.062,0.932,0.062c0.32,0,0.416-0.183,0.416-0.695c0-0.783-0.61-1.266-1.475-1.266
		c-3.912,0-7.629,3.076-7.629,8.112c0,0.116,0.017,0.224,0.022,0.337c-0.587,1.232-1.611,2.227-3.386,2.227
		c-1.668,0-2.534-0.844-2.982-1.868c3.112-0.875,4.744-3.529,4.745-5.762c0-1.809-1.088-3.045-2.884-3.045
		c-2.465,0-4.903,2.864-4.903,6.695c0,0.485,0.047,0.942,0.132,1.375c-0.324,1.229-0.904,2.609-2.151,2.609
		c-0.867,0-1.283-0.782-1.283-1.627c0-3.019,1.442-6.578,1.442-6.938c0.131-0.695-1.152-1.691-1.538-1.691h-1.667
		c-0.319,0-0.639,0-1.698-0.122c-0.351-1.233-1.25-1.597-2.019-1.597c-0.834,0-1.603,0.542-1.603,1.385
		c0,0.877,0.579,1.509,1.38,1.931c-0.033,1.541-0.162,4.043-0.514,5.248c-0.287,1.026,1.377,2.112,1.795,0.844
		c0.577-1.749,0.769-4.375,0.801-5.55h0.352h2.436c-1.026,2.591-1.602,4.734-1.602,6.664c0,2.654,1.793,3.438,3.301,3.439
		c1.697,0,2.821-1.027,3.57-2.281c1.072,1.471,2.772,2.279,4.537,2.279c2.093,0,3.507-0.721,4.454-1.683
		c0.631,1.026,1.655,1.683,3.077,1.683c1.217,0,2.115-0.543,2.756-1.232c0.481,0.721,1.348,1.232,2.47,1.232
		c1.151,0,2.042-0.478,2.733-1.174c0.515,0.812,1.371,1.173,2.421,1.173c2.756,0,4.037-2.712,4.583-4.704
		C53.452,17.831,53.452,17.768,53.452,17.739z M27.879,16.592c-0.064-1.267,0.416-4.583,1.986-4.583c0.42,0,0.674,0.391,0.674,1.056
		c0,1.808-1.027,3.377-2.628,4.073C27.911,16.957,27.879,16.776,27.879,16.592z"/>
	<path fill="#010202" d="M75.086,17.947c0-2.593-1.506-4.101-3.366-4.614c2.339-1.175,4.135-3.198,4.135-6.488
		C75.854,2.564,72.682,0,67.841,0c-5.706,0-9.647,3.684-9.647,9.32c0,3.528,1.826,5.341,2.341,5.796
		c0.929,0.66,1.794-1.328,1.794-1.874c0-0.3-0.128-0.511-0.481-0.422c-0.062-0.089-1.217-1.025-1.217-3.677
		c0-3.681,2.086-6.88,7.246-6.88c3.94,0,5.51,2.355,5.51,4.647c0,4.375-3.687,5.307-5.191,5.307c-0.962,0-0.419,2.264,0.16,2.264
		c2.02,0,4.23,0.816,4.23,3.531c0,1.746-1.347,3.074-3.143,3.074c-1.892,0-2.916-1.143-2.916-4.042V5.854
		c0-0.724-0.735-1.326-1.796-1.326c-0.447,0-0.833,0.212-0.833,0.512c0,0.209,0.129,0.391,0.129,0.967v10.947
		c0,3.707,1.251,6.209,5.452,6.209C72.649,23.164,75.086,20.963,75.086,17.947z"/>
	<path fill="#010202" d="M99.596,7.306c1.123,0,1.955-0.849,1.955-1.842c0-1.056-0.832-1.84-1.955-1.84
		c-1.057,0-1.923,0.784-1.923,1.84C97.673,6.457,98.539,7.306,99.596,7.306z"/>
	<path fill="#010202" d="M115.879,16.507c-0.321,0-0.644,0.271-0.768,0.906c-0.291,1.326-0.864,3.257-2.149,3.257
		c-0.835,0-0.835-1.118-0.835-1.387v-6.245c0-1.386-0.512-3.045-2.659-3.045c-1.569,0-2.725,1.296-3.59,2.986V11.62
		c0-0.723-0.674-1.329-1.73-1.329c-0.451,0-0.834,0.213-0.834,0.513c0,0.21,0.129,0.391,0.129,0.963h0.001v5.25
		c-0.049,0.112-0.094,0.235-0.126,0.39c-0.292,1.325-0.867,3.257-2.15,3.257c-0.832,0-0.832-1.118-0.832-1.385v-7.662
		c0-0.723-0.673-1.33-1.731-1.33c-0.448,0-0.834,0.214-0.834,0.514c0,0.21,0.128,0.39,0.128,0.963v5.247
		c-0.052,0.113-0.095,0.244-0.126,0.398c-0.287,1.327-0.863,3.257-2.146,3.255c-0.77,0-1.091-0.721-1.091-1.385V14.3
		c0-0.721-0.671-1.325-1.729-1.325c-0.449,0-0.835,0.211-0.835,0.511c0,0.209,0.131,0.392,0.131,0.967v4.641
		c-0.354,0.851-0.932,1.571-1.799,1.571c-1.12,0-1.826-0.906-1.826-2.473c0-4.346,2.852-6.305,5.29-6.305
		c0.318,0,0.642,0.062,0.928,0.062c0.321,0,0.418-0.183,0.418-0.695c0-0.783-0.608-1.266-1.474-1.266
		c-3.911,0-7.629,3.076-7.629,8.112c0,0.228,0.022,0.444,0.043,0.661c-0.354,0.998-0.922,1.906-1.932,1.906
		c-0.867,0-1.283-0.782-1.283-1.627c0-3.019,1.442-6.578,1.442-6.938c0.127-0.695-1.156-1.691-1.538-1.691h-1.67
		c-0.32,0-0.639,0-1.696-0.122c-0.353-1.233-1.253-1.597-2.022-1.597c-0.832,0-1.6,0.542-1.6,1.385c0,0.877,0.574,1.509,1.377,1.931
		c-0.031,1.541-0.162,4.043-0.512,5.248c-0.289,1.026,1.38,2.112,1.794,0.844c0.577-1.749,0.77-4.375,0.802-5.55h0.354h2.435
		c-1.023,2.591-1.6,4.734-1.6,6.664c0,2.654,1.794,3.438,3.298,3.439c1.374,0,2.373-0.674,3.102-1.595
		c0.635,0.974,1.639,1.593,3.02,1.593c1.217,0,2.118-0.543,2.757-1.232c0.483,0.721,1.344,1.232,2.467,1.232
		c1.37,0,2.374-0.67,3.106-1.587c0.393,0.929,1.233,1.585,2.438,1.585c1.227,0,2.152-0.537,2.855-1.307
		c0.009,1.104,0.9,1.311,1.536,1.311c0.927,0,0.897-0.721,0.897-1.293v-4.404c0.224-2.382,2.209-4.978,3.141-4.978
		c0.609,0,0.675,0.787,0.675,1.719v6.125c0,1.541,0.991,2.834,2.689,2.834c2.758,0,4.041-2.711,4.585-4.704
		C117,17.836,117,17.774,117,17.744C117,17.171,116.391,16.507,115.879,16.507z"/>
	<polygon fill="#010202" points="18.793,32.889 20.622,32.889 20.621,32.174 18.792,32.174 18.792,31.006 20.962,31.006 
		20.962,30.287 17.803,30.287 17.803,34.932 20.967,34.932 20.967,34.217 18.793,34.217 	"/>
	<path fill="#010202" d="M24.355,30.285h-1.72v4.645h1.72c0.605,0,1.102-0.182,1.491-0.541c0.391-0.359,0.587-0.826,0.587-1.396
		v-0.766c0-0.566-0.196-1.031-0.587-1.395C25.457,30.469,24.96,30.285,24.355,30.285z M25.442,32.994c0,0.359-0.1,0.652-0.299,0.879
		c-0.2,0.23-0.459,0.344-0.788,0.344h-0.731v-3.211v-0.004h0.731c0.329,0,0.589,0.117,0.788,0.342
		c0.199,0.229,0.299,0.523,0.299,0.877V32.994z"/>
	<path fill="#010202" d="M31.115,33.328c0,0.311-0.089,0.547-0.268,0.713c-0.178,0.164-0.42,0.244-0.725,0.244
		c-0.303,0-0.538-0.08-0.716-0.244c-0.175-0.166-0.264-0.404-0.264-0.713v-3.041h-0.99v3.041c0,0.523,0.179,0.93,0.544,1.23
		c0.366,0.293,0.84,0.439,1.425,0.439c0.587,0,1.065-0.146,1.433-0.439c0.368-0.301,0.55-0.707,0.55-1.23v-3.041h-0.991V33.328z"/>
	<path fill="#010202" d="M35.746,30.221c-0.575,0-1.043,0.182-1.396,0.543c-0.355,0.359-0.532,0.822-0.532,1.389v0.92
		c0,0.568,0.181,1.033,0.545,1.391C34.725,34.822,35.205,35,35.797,35c0.579,0,1.035-0.139,1.363-0.422
		c0.332-0.281,0.491-0.67,0.483-1.162l-0.007-0.021h-0.958c0,0.301-0.071,0.527-0.217,0.672c-0.146,0.146-0.367,0.219-0.662,0.219
		c-0.312,0-0.556-0.113-0.732-0.338c-0.174-0.227-0.261-0.52-0.261-0.877v-0.926c0-0.355,0.085-0.643,0.249-0.869
		c0.167-0.225,0.397-0.338,0.693-0.338c0.317,0,0.553,0.078,0.708,0.221c0.153,0.146,0.228,0.367,0.228,0.662h0.962l0.007-0.014
		c0.007-0.502-0.157-0.893-0.497-1.17C36.816,30.363,36.348,30.221,35.746,30.221z"/>
	<path fill="#010202" d="M40.593,30.287l-1.663,4.645h1.034l0.332-1.002h1.599l0.335,1.002h1.032l-1.656-4.645H40.593z
		 M40.54,33.197l0.548-1.633h0.02l0.544,1.633H40.54z"/>
	<polygon fill="#010202" points="44.058,31.006 45.45,31.006 45.45,34.93 46.437,34.93 46.437,31.006 47.848,31.006 47.848,30.287 
		44.058,30.287 	"/>
	<rect x="49.429" y="30.285" fill="#010202" width="0.988" height="4.645"/>
	<path fill="#010202" d="M54.288,30.221c-0.606,0-1.099,0.186-1.477,0.557c-0.378,0.375-0.567,0.848-0.567,1.414v0.838
		c0,0.568,0.192,1.039,0.569,1.412c0.377,0.369,0.873,0.557,1.483,0.557c0.612,0,1.109-0.188,1.491-0.555
		c0.382-0.371,0.571-0.844,0.571-1.414l0.002-0.838c0-0.568-0.19-1.039-0.576-1.414C55.399,30.406,54.902,30.221,54.288,30.221z
		 M55.374,33.027c0,0.367-0.095,0.666-0.285,0.896c-0.189,0.232-0.455,0.348-0.792,0.348c-0.336,0-0.597-0.117-0.785-0.348
		c-0.189-0.23-0.281-0.529-0.281-0.896v-0.844c0-0.359,0.092-0.652,0.279-0.887c0.185-0.232,0.447-0.348,0.779-0.348
		c0.34,0,0.606,0.115,0.798,0.348c0.191,0.234,0.288,0.527,0.288,0.887V33.027z"/>
	<polygon fill="#010202" points="61.114,33.414 61.095,33.418 59.105,30.285 58.117,30.285 58.117,34.93 59.105,34.93 
		59.105,31.803 59.125,31.799 61.114,34.93 62.102,34.93 62.102,30.285 61.114,30.285 	"/>
	<path fill="#010202" d="M68.576,32.229c-0.354-0.111-0.603-0.219-0.749-0.32c-0.144-0.102-0.216-0.23-0.216-0.387
		c0-0.176,0.066-0.318,0.201-0.426c0.131-0.109,0.321-0.166,0.565-0.166c0.267,0,0.476,0.061,0.626,0.186
		c0.148,0.127,0.224,0.305,0.224,0.537h0.958l0.009-0.021c0.012-0.422-0.153-0.758-0.481-1.021c-0.335-0.26-0.776-0.389-1.325-0.389
		c-0.509,0-0.938,0.121-1.268,0.363c-0.333,0.242-0.5,0.551-0.5,0.932c0,0.379,0.147,0.674,0.443,0.896
		c0.293,0.217,0.727,0.41,1.294,0.57c0.332,0.096,0.566,0.199,0.699,0.309c0.129,0.105,0.196,0.248,0.196,0.428
		c0,0.176-0.07,0.312-0.208,0.416c-0.139,0.104-0.339,0.158-0.602,0.158c-0.294,0-0.528-0.062-0.696-0.193
		c-0.174-0.129-0.261-0.334-0.261-0.605h-0.958l-0.007,0.02c-0.014,0.494,0.175,0.865,0.552,1.113
		C67.455,34.875,67.911,35,68.443,35c0.543,0,0.978-0.115,1.308-0.344c0.329-0.23,0.496-0.547,0.496-0.941
		c0-0.381-0.145-0.689-0.429-0.92C69.535,32.562,69.12,32.371,68.576,32.229z"/>
	<polygon fill="#010202" points="72.931,32.889 74.762,32.889 74.762,32.174 72.931,32.174 72.931,31.006 75.101,31.006 
		75.101,30.287 71.941,30.287 71.941,34.932 75.108,34.932 75.108,34.217 72.931,34.217 	"/>
	<path fill="#010202" d="M80.311,34.145v-0.342c0-0.279-0.063-0.512-0.192-0.701c-0.127-0.189-0.338-0.324-0.628-0.406
		c0.258-0.105,0.453-0.246,0.588-0.418c0.135-0.174,0.2-0.381,0.2-0.617c0-0.434-0.158-0.77-0.477-1.01
		c-0.317-0.242-0.758-0.363-1.319-0.363h-1.71v4.645h0.99v-1.855v-0.002h0.79c0.246,0,0.437,0.064,0.57,0.191
		c0.135,0.129,0.202,0.311,0.202,0.541v0.326c0,0.15,0.012,0.305,0.038,0.461c0.025,0.154,0.082,0.268,0.175,0.336h1.021v-0.066
		c-0.092-0.066-0.154-0.172-0.19-0.314C80.33,34.41,80.311,34.273,80.311,34.145z M79.084,32.191
		c-0.132,0.111-0.341,0.168-0.619,0.168h-0.701v-1.354h0.719c0.266,0,0.464,0.061,0.6,0.189c0.137,0.125,0.207,0.291,0.207,0.504
		C79.289,31.918,79.219,32.082,79.084,32.191z"/>
	<polygon fill="#010202" points="83.926,33.684 83.865,33.926 83.844,33.926 83.785,33.67 82.716,30.287 81.674,30.287 
		83.346,34.932 84.364,34.932 86.041,30.287 84.998,30.287 	"/>
	<rect x="87.558" y="30.285" fill="#010202" width="0.986" height="4.645"/>
	<path fill="#010202" d="M92.309,30.221c-0.577,0-1.041,0.182-1.396,0.543c-0.356,0.359-0.532,0.822-0.532,1.389v0.92
		c0,0.568,0.18,1.033,0.545,1.391C91.287,34.822,91.767,35,92.358,35c0.58,0,1.037-0.139,1.363-0.422
		c0.331-0.281,0.493-0.67,0.482-1.162l-0.009-0.021h-0.953c0,0.301-0.071,0.527-0.216,0.672c-0.151,0.146-0.372,0.219-0.664,0.219
		c-0.314,0-0.557-0.113-0.732-0.338c-0.173-0.227-0.261-0.52-0.261-0.877v-0.926c0-0.355,0.079-0.643,0.247-0.869
		c0.166-0.225,0.396-0.338,0.692-0.338c0.319,0,0.555,0.078,0.707,0.221c0.155,0.146,0.229,0.367,0.229,0.662h0.964l0.006-0.014
		c0.008-0.502-0.155-0.893-0.494-1.17C93.377,30.363,92.908,30.221,92.309,30.221z"/>
	<polygon fill="#010202" points="96.872,32.889 98.702,32.889 98.702,32.174 96.872,32.174 96.872,31.006 99.043,31.006 
		99.043,30.287 95.884,30.287 95.884,34.932 99.049,34.932 99.049,34.217 96.872,34.217 	"/>
</g>
</svg>
