<?xml version="1.0" encoding="utf-8"?>
<!-- Generator: Adobe Illustrator 15.0.0, SVG Export Plug-In . SVG Version: 6.00 Build 0)  -->
<!DOCTYPE svg PUBLIC "-//W3C//DTD SVG 1.1//EN" "http://www.w3.org/Graphics/SVG/1.1/DTD/svg11.dtd">
<svg version="1.1" id="Layer_1" xmlns="http://www.w3.org/2000/svg" xmlns:xlink="http://www.w3.org/1999/xlink" x="0px" y="0px"
	 width="254px" height="374px" viewBox="0 0 254 374" enable-background="new 0 0 254 374" xml:space="preserve">
<g>
	<g>
		<path fill="#FFFFFF" d="M33.465,350.674l-0.195,0.011c-0.917,0.058-1.939,0.12-3.014,0.267c-0.007-2.046-0.024-3.896-0.041-5.633
			c-0.013-1.646-0.03-3.192-0.03-4.707c0-3.092,0.05-6.488,0.419-10.427c0-1.87-2.654-3.062-4.041-3.062
			c-0.991,0-2.653,0-2.653,1.818c0,0.226,0.033,0.591,0.067,0.984c0.034,0.444,0.074,0.926,0.074,1.293
			c0,5.296-3.417,14.757-10.23,14.757c-4.352,0-7.39-6.467-7.39-15.722c0-11.346,6.911-25.044,15.49-25.044
			c2.995,0,3.792,2.157,3.792,3.433c0,4.075-4.67,8.056-8.154,8.056c-1.222,0-1.648-0.259-1.957-0.448
			c-0.194-0.117-0.392-0.24-0.677-0.24c-1.179,0-1.196,2.894-1.196,2.922c0,2.278,1.37,3.747,3.488,3.747
			c6.539,0,14.836-6.772,14.836-14.38c0-5.297-3.795-8.996-9.229-8.996c-13.561,0-23.014,16.351-23.014,31.021
			c0,13.512,5.313,21.902,13.869,21.902c3.883,0,7.35-1.976,10.325-5.876c0.01,0.364,0.02,0.751,0.033,1.163
			c0.041,1.254,0.08,2.724,0.08,4.42v0.364c-8.338,2.585-12.743,7.087-12.743,13.032c0,5.051,3.37,8.578,8.197,8.578
			c9.498,0,10.315-12.21,10.522-16.804c0.811-0.062,1.601-0.111,2.505-0.111c1.709-0.05,3.136-2.341,3.112-4.185
			C35.696,351.42,34.865,350.604,33.465,350.674z M23.871,358.352c-0.338,4.421-1.343,9.374-4.16,9.374
			c-1.327,0-2.057-0.901-2.057-2.534C17.653,361.419,20.9,359.406,23.871,358.352z"/>
		<path fill="#FFFFFF" d="M119.103,315.749c-0.268,0-0.546,0.133-0.837,0.407c-3.973,0.172-8.402,0.264-13.159,0.267v-11.647
			c0-2.013-1.754-3.474-4.173-3.474c-0.108,0-2.654,0.019-2.654,1.192c0,0.285,0.124,0.481,0.242,0.675
			c0.194,0.308,0.456,0.731,0.456,1.954v11.225c-3.447-0.071-5.755-0.197-5.802-0.197c-0.483,0-0.871,0.197-1.129,0.563
			c-0.205,0.297-0.319,0.709-0.319,1.182c0,1.53,1.132,3.745,2.868,3.745c0.067,0.006,1.618,0.131,4.382,0.141v21.016
			c-0.848,2.109-1.889,3.179-3.099,3.179c-1.511,0-1.917-1.724-1.917-2.742v-11.392c0-2.013-1.758-3.472-4.173-3.472
			c-1.276,0-2.238,0.688-2.238,1.606c0,0.232,0.047,0.434,0.101,0.668c0.077,0.346,0.177,0.773,0.177,1.542v10.549
			c-0.603,1.497-1.682,3.24-3.444,3.24c-2.201,0-3.514-1.953-3.514-5.227c0-9.19,5.531-13.999,10.991-13.999
			c0.342,0,0.683,0.036,1.015,0.07c0.345,0.036,0.68,0.069,0.995,0.069c1.337,0,1.337-1.315,1.337-2.022
			c0-1.995-1.457-3.335-3.622-3.335c-8.201,0-16.917,6.663-16.917,19.009c0,0.178,0.014,0.342,0.027,0.512l0.013,0.178
			c-1.447,3.148-3.762,4.745-6.877,4.745c-2.744,0-4.707-1.202-5.846-3.577c6.626-2.211,10.09-8.382,10.09-13.457
			c0-4.502-2.62-7.409-6.667-7.409c-5.33,0-11.035,6.336-11.035,15.768c0,1.063,0.094,2.117,0.278,3.129
			c-0.945,3.729-2.322,5.547-4.202,5.547c-1.611,0-2.334-1.653-2.334-3.295c0-5.064,1.682-10.754,2.586-13.813
			c0.375-1.272,0.529-1.804,0.522-1.994c0.161-0.907-0.435-1.842-0.961-2.467c-0.774-0.916-2.06-1.905-2.791-1.905h-3.601
			c-0.667,0-1.3,0-3.333-0.24c-1.032-3.329-3.618-3.695-4.703-3.695c-1.917,0-3.896,1.353-3.896,3.609
			c0,1.899,1.028,3.506,2.972,4.665c-0.047,2.271-0.262,8.656-1.085,11.657c-0.225,0.84-0.007,1.774,0.596,2.553
			c0.587,0.763,1.441,1.235,2.218,1.235c0.891,0,1.581-0.588,1.896-1.612c1.172-3.755,1.638-9.364,1.742-12.404h4.978
			c-2.261,6.173-3.272,10.765-3.272,14.828c0,6.122,3.909,8.302,7.567,8.302c3.149,0,5.755-1.636,7.752-4.865
			c2.351,3.058,5.956,4.865,9.765,4.865c3.923,0,7.132-1.206,9.551-3.586c1.554,2.351,3.866,3.586,6.727,3.586
			c2.271,0,4.254-0.865,5.906-2.567c1.237,1.639,3.169,2.567,5.384,2.567c2.208,0,4.167-0.816,5.842-2.438
			c1.166,1.597,2.988,2.438,5.306,2.438c6.486,0,9.253-6.949,10.325-11.101c0.081-0.323,0.081-0.498,0.081-0.584
			c0-1.557-1.498-3.27-2.861-3.27c-0.381,0-1.661,0.178-2.086,2.425c-0.972,4.715-2.389,7.106-4.218,7.106
			c-0.472,0-1.917,0-1.917-2.742v-21.452c3.531,0,7.545-0.004,12.881-0.138c1.518-0.06,2.121-2.839,2.094-4.244
			C120.051,315.964,119.458,315.749,119.103,315.749z M64.787,327.027c0.945,0,1.015,1.516,1.015,1.983
			c0,3.738-1.839,6.985-4.847,8.637c-0.014-0.188-0.027-0.375-0.027-0.579c-0.108-2.2,0.499-7.365,2.378-9.327
			C63.762,327.262,64.248,327.027,64.787,327.027z"/>
		<path fill="#FFFFFF" d="M156.287,329.532c5.44-3.224,8.309-8.302,8.309-14.744c0-9.935-6.801-16.11-17.748-16.11
			c-12.73,0-21.286,8.75-21.286,21.774c0,7.877,3.638,12.111,5.232,13.598c0.346,0.264,0.714,0.395,1.092,0.395
			c2.037,0,3.484-3.808,3.484-5.02c0-1.341-0.878-1.45-1.146-1.45c-0.054,0-0.113,0.008-0.168,0.011
			c-1.54-1.736-2.357-4.485-2.357-7.952c0-9.584,5.688-15.306,15.215-15.306c8.476,0,11.477,5.495,11.477,10.2
			c0,9.267-7.048,11.716-10.78,11.716c-0.542,0-0.991,0.267-1.26,0.751c-0.207,0.373-0.313,0.871-0.313,1.475
			c0,1.558,0.743,3.817,1.915,3.817c2.62,0,8.711,0.745,8.711,7.647c0,3.768-2.734,6.607-6.353,6.607
			c-4.06,0-5.868-2.72-5.868-8.814v-25.62c0-1.976-1.856-3.473-4.315-3.473c-1.272,0-2.23,0.694-2.23,1.608
			c0,0.234,0.047,0.436,0.093,0.668c0.081,0.345,0.175,0.774,0.175,1.543v25.063c0,9.998,3.887,14.657,12.214,14.657
			c7.162,0,12.556-5.323,12.556-12.379C162.934,335.078,160.468,331.165,156.287,329.532z"/>
		<path fill="#FFFFFF" d="M215.468,316.257c2.613,0,4.656-2.04,4.656-4.646c0-2.646-2.004-4.647-4.656-4.647
			c-2.573,0-4.59,2.044-4.59,4.647C210.878,314.13,212.981,316.257,215.468,316.257z"/>
		<path fill="#FFFFFF" d="M250.648,336.444c-1.019,0-1.803,0.909-2.084,2.425c-0.978,4.715-2.392,7.106-4.221,7.106
			c-1.125,0-1.36-1.493-1.36-2.742v-14.292c0-4.709-2.258-7.409-6.184-7.409c-2.768,0-5.226,1.851-7.323,5.512v-1.35
			c0-2.009-1.763-3.471-4.174-3.471c-1.28,0-2.238,0.692-2.238,1.608c0,0.229,0.047,0.434,0.101,0.664
			c0.074,0.347,0.175,0.778,0.175,1.546v11.93c-0.12,0.3-0.208,0.588-0.268,0.897c-0.966,4.715-2.379,7.106-4.208,7.106
			c-1.133,0-1.367-1.493-1.367-2.742v-17.539c0-2.009-1.762-3.471-4.174-3.471c-1.279,0-2.245,0.692-2.245,1.608
			c0,0.229,0.047,0.434,0.102,0.667c0.079,0.344,0.18,0.775,0.18,1.543v11.919c-0.112,0.283-0.199,0.585-0.26,0.908
			c-0.972,4.715-2.386,7.106-4.215,7.106c-1.515,0-1.917-1.724-1.917-2.742v-11.392c0-2.013-1.761-3.472-4.18-3.472
			c-1.272,0-2.231,0.688-2.231,1.606c0,0.232,0.047,0.434,0.094,0.668c0.081,0.346,0.181,0.773,0.181,1.542v10.549
			c-0.602,1.497-1.682,3.24-3.443,3.24c-2.198,0-3.511-1.953-3.511-5.227c0-9.19,5.527-13.999,10.988-13.999
			c0.342,0,0.683,0.036,1.011,0.07c0.349,0.036,0.685,0.069,0.999,0.069c1.34,0,1.34-1.315,1.34-2.022
			c0-1.995-1.46-3.335-3.625-3.335c-8.2,0-16.917,6.663-16.917,19.009c0,0.476,0.04,0.926,0.081,1.38l0.007,0.073
			c-0.912,2.679-2.131,3.981-3.739,3.981s-2.332-1.653-2.332-3.295c0-5.064,1.683-10.754,2.586-13.813
			c0.376-1.272,0.53-1.804,0.523-1.994c0.16-0.907-0.436-1.842-0.965-2.472c-0.771-0.911-2.057-1.9-2.787-1.9h-3.605
			c-0.636,0-1.292,0-3.329-0.24c-1.032-3.329-3.618-3.695-4.703-3.695c-1.916,0-3.899,1.353-3.899,3.609
			c0,1.899,1.031,3.506,2.975,4.665c-0.047,2.274-0.262,8.663-1.086,11.657c-0.227,0.84-0.006,1.774,0.597,2.553
			c0.59,0.763,1.44,1.235,2.218,1.235c0.892,0,1.581-0.588,1.903-1.612c1.166-3.758,1.627-9.367,1.735-12.404h4.978
			c-2.258,6.173-3.276,10.768-3.276,14.828c0,6.122,3.913,8.302,7.57,8.302c2.606,0,4.845-1.124,6.667-3.339
			c1.554,2.188,3.812,3.339,6.559,3.339c2.271,0,4.261-0.865,5.91-2.567c1.239,1.639,3.169,2.567,5.38,2.567
			c2.565,0,4.784-1.091,6.605-3.239c1.072,2.067,2.995,3.239,5.367,3.239c2.218,0,4.181-0.824,5.849-2.447
			c0.368,1.569,1.654,2.447,3.639,2.447c0.729,0,1.3-0.2,1.694-0.594c0.684-0.686,0.684-1.791,0.684-2.679l-0.007-10.173
			c0.482-5.359,4.71-10.996,6.358-10.996c0.852,0,1.019,1.341,1.019,3.502v14.018c0,4.077,2.572,6.922,6.251,6.922
			c6.491,0,9.259-6.949,10.332-11.101c0.079-0.323,0.079-0.498,0.079-0.584C253.509,338.157,252.008,336.444,250.648,336.444z"/>
	</g>
	<g>
		<g>
			<path fill="#FFFFFF" d="M161.084,14.275L129.683,0.308c-1.236-0.548-2.647-0.548-3.883,0L94.401,14.275
				c-1.716,0.766-2.828,2.467-2.828,4.337c0,1.658,0.891,3.212,2.318,4.065c0.415,0.468,0.877,0.833,1.276,1.139
				c0.86,0.65,0.975,0.818,0.975,1.133c0,0.318-0.114,0.485-0.981,1.14c-0.935,0.716-2.355,1.798-2.355,3.935
				c0,2.139,1.48,3.264,2.362,3.937c0.321,0.244,0.553,0.431,0.71,0.59c-1.323,0.298-2.352,1.394-2.522,2.751l-0.791,6.18
				c-0.121,0.929,0.164,1.864,0.787,2.564c0.62,0.704,1.51,1.105,2.448,1.105h4.308c0.938,0,1.83-0.402,2.453-1.105
				c0.616-0.699,0.904-1.634,0.787-2.563l-0.787-6.18c-0.195-1.509-1.438-2.686-2.942-2.825c-0.251-1.76-1.527-2.73-2.301-3.322
				c-0.861-0.652-0.975-0.82-0.975-1.133s0.114-0.481,0.975-1.136c0.834-0.634,2.201-1.673,2.348-3.591l4.73,2.107v0.403V38.22
				v1.184v0.14v0.583c0.027,0,0.047,0,0.074,0c0.744,8.177,16.626,9.099,23.563,9.099c6.941,0,22.82-0.921,23.563-9.099
				c0.027,0,0.048,0,0.074,0v-0.583v-0.14V38.13V27.716V27.58v-0.449l9.407-4.18c1.721-0.761,2.827-2.464,2.827-4.336
				C163.905,16.742,162.799,15.041,161.084,14.275z M96.833,37.986h2.244l0.724,5.639h-3.691L96.833,37.986z M146.633,32.79
				c-5.46-2.655-13.996-3.065-18.6-3.065c-4.605,0-13.142,0.411-18.598,3.064v-2.953v-0.001v-3.441c0-2.25,7.47-4.658,18.598-4.658
				c11.129,0,18.6,2.408,18.6,4.658V32.79z M128.033,44.203c-11.125,0-18.598-2.408-18.598-4.659v-0.15
				c0-0.172,0.06-0.348,0.15-0.521c4.037,2.289,10.884,3.649,18.536,3.649c1.732,0,3.45-0.072,5.119-0.214
				c0.971-0.084,1.694-0.94,1.607-1.91c-0.073-0.904-0.845-1.613-1.755-1.613c-0.055,0-0.107,0.001-0.161,0.006
				c-1.555,0.134-3.173,0.202-4.811,0.202c-6.684,0-11.755-1.055-14.958-2.331c3.253-1.112,8.446-1.917,14.87-1.917
				c6.473,0,11.692,0.818,14.941,1.941c-0.67,0.262-1.387,0.514-2.184,0.739c-0.583,0.169-1.213,0.328-1.876,0.477
				c-0.952,0.213-1.548,1.157-1.341,2.107c0.188,0.811,0.892,1.378,1.729,1.378c0.134,0,0.262-0.015,0.389-0.043
				c0.71-0.157,1.407-0.335,2.071-0.524c1.862-0.53,3.449-1.168,4.756-1.891c0.067,0.158,0.114,0.317,0.114,0.474v0.151
				C146.606,41.801,139.142,44.203,128.033,44.203z M150.137,22.315c-4.247-4.971-16.308-5.602-22.104-5.602
				c-5.875,0-18.156,0.656-22.25,5.81l-8.776-3.91l30.732-13.672l30.74,13.672L150.137,22.315z"/>
		</g>
		<path fill="#FFFFFF" d="M172.863,160.027c-2.226-6.212-5.548-11.364-9.086-16.468c2.432-6.211,5.883-17.292,4.63-27.858
			c-0.944-7.945-6.117-11.668-12.931-8.946c-10.398,4.157-17.855,14.688-22.692,22.711c-4.354-0.604-9.695-0.594-14.672,0.021
			c-7.331-12.116-14.764-19.556-22.706-22.732c-1.528-0.611-3.739-1.039-5.374-1.039c-1.015,0-1.796,0.161-2.389,0.495
			c-11.112,6.164-2.529,32.056-0.546,37.569c-3.745,4.79-6.793,10.239-9.065,16.216l-0.757,1.991l2.087,0.46
			c11.875,2.615,22.069,7.868,32.008,16.511c-0.026,3.603,1.143,6.752,3.404,9.15c1.434,1.523,3.276,2.668,5.343,3.399
			c0.003-0.006,0.003-0.01,0.003-0.013c1.323,0.466,3.843,1.142,5.307,1.142c1.688,0,4.586-0.818,6.05-1.423
			c0-0.006-0.007-0.019-0.01-0.025c1.738-0.735,3.293-1.784,4.552-3.113c2.312-2.444,3.511-5.677,3.491-9.385
			c8.582-6.806,18.438-13.394,31.992-16.24l2.07-0.438L172.863,160.027z M139.859,169.034c-0.288-6.913,1.272-10.647,5.111-12.573
			c0.355-0.178,0.905-0.328,1.441-0.471c1.434-0.392,4.429-1.203,4.113-4.274c-0.194-1.97-1.615-3.193-3.691-3.193
			c-2.955,0-6.888,2.438-6.928,2.458c-1.917,1.195-4.576,3.673-5.548,5.596c-1.916,3.791-1.937,8.997-1.963,14.026
			c-0.026,6.746-0.309,11.388-2.844,13.396c-0.449,0.257-1.391,0.734-1.611,0.831c-0.017-0.781,0.371-1.398,0.878-2.207
			c0.662-1.059,1.486-2.375,1.078-4.131c-0.419-1.787-2.177-2.939-4.482-2.939c-2.15,0-3.866,1.002-4.369,2.558
			c-0.602,1.878,0.265,3.226,0.958,4.301c0.513,0.799,0.928,1.443,0.918,2.325c-0.195-0.094-1.069-0.535-1.628-0.841
			c-2.433-1.957-2.647-6.004-2.721-12.44c-0.026-2.261-0.05-4.595-0.228-7.05c-0.438-6.098-3.858-11.361-7.015-13.405
			c-0.034-0.025-4.141-2.451-7.249-2.451c-1.896,0-3.27,0.962-3.679,2.572c-0.717,2.832,2.868,4.656,6.338,6.418
			c0.938,0.474,2.224,1.129,2.469,1.35c1.802,2.233,1.772,4.832,1.731,8.425c-0.007,0.517-0.014,1.062-0.014,1.623
			c-6.687-4.692-14.2-9.18-23.483-12.072c2.255-4.957,5.822-8.637,9.575-12.511c1.343-1.379,2.68-2.758,3.959-4.2l0.617-0.692
			l-0.191-0.904c-0.265-1.27-1.105-1.967-1.605-2.385l-0.754-0.674l-0.921-0.033c-2.492,0-4.006,1.496-5.112,2.591
			c-0.03,0.033-0.067,0.067-0.104,0.106c-2.134-7.2-5.029-17.914-1.859-24.575c11.088,3.737,16.663,12.961,22.565,22.732
			l0.632,1.041l1.209-0.167c2.553-0.361,6.402-0.574,10.298-0.574c3.809,0,7.115,0.201,9.299,0.564l0.696,0.117l0.597-0.375
			c2.197-1.385,3.095-3.553,3.886-5.463c0.389-0.928,0.75-1.803,1.233-2.558c3.584-5.597,11.765-13.188,18.257-15.763
			c3.216,7.09,0.254,18.475-1.729,25.02c-0.086-0.074-0.167-0.147-0.247-0.214c-1.273-1.121-2.714-2.384-4.536-2.384
			c-0.918,0-2.251,0.341-3.424,1.97l-0.656,0.909l0.509,0.995c1.307,2.584,3.311,4.354,5.246,6.064
			c1.133,1.008,2.212,1.957,3.108,3.036c1.99,2.387,3.578,4.976,5.307,8.188C153.861,160.265,146.144,164.312,139.859,169.034z"/>
		<g>
			<path fill="#FFFFFF" d="M230.274,140.064c7.637-4.712,12.36-13.441,12.461-21.641c0.175-13.982-7.001-20.334-14.378-25.24
				c-0.429-12.683-4.864-19.422-17.626-27.636l-13.91-8.953c2.217-0.889,4.281-2.27,6.058-4.12c3.645-3.806,5.62-9.149,5.446-14.662
				c-0.182-5.457-2.532-10.556-6.612-14.358c-4.583-4.273-10.968-6.622-17.762-6.362c-13.279,0.461-22.841,13.285-23.122,24.505
				c-0.141,5.859,1.173,10.526,3.311,14.39H86.81c2.134-3.864,3.451-8.531,3.306-14.39c-0.271-11.22-9.835-24.044-23.124-24.505
				c-6.727-0.224-13.162,2.089-17.748,6.362c-4.084,3.802-6.429,8.902-6.61,14.358c-0.184,5.517,1.802,10.865,5.447,14.669
				c1.772,1.847,3.835,3.224,6.05,4.113l-13.909,8.953C27.462,73.761,23.027,80.5,22.598,93.183
				c-7.38,4.913-14.559,11.258-14.385,25.24c0.1,8.206,4.827,16.928,12.468,21.641c-7.641,4.711-12.368,13.441-12.468,21.644
				c-0.174,13.979,7.005,20.324,14.385,25.233c0.429,12.687,4.864,19.426,17.624,27.642l13.912,8.956
				c-2.217,0.886-4.281,2.262-6.049,4.108c-3.648,3.804-5.635,9.146-5.451,14.673c0.181,5.45,2.526,10.55,6.61,14.351
				c4.375,4.085,10.475,6.382,16.846,6.382c0.299,0,0.6-0.01,0.902-0.01c10.357-0.361,18.435-8.239,21.626-17.009l25.155,15.766
				c-1.129,3.598-1.826,7.104-1.826,9.814c0,8.965,6.134,16.255,13.674,16.255c7.531,0,13.662-7.29,13.662-16.255
				c0-2.693-0.67-6.295-1.796-10.007l24.844-15.569c3.202,8.77,11.269,16.644,21.626,17.005c0.302,0,0.604,0.01,0.905,0.01
				c6.378,0,12.469-2.297,16.851-6.382c4.08-3.801,6.431-8.896,6.612-14.351c0.174-5.518-1.802-10.862-5.446-14.67
				c-1.776-1.85-3.841-3.226-6.058-4.111l13.91-8.956c12.762-8.216,17.197-14.958,17.626-27.635
				c7.377-4.909,14.553-11.261,14.378-25.24C242.635,153.505,237.911,144.775,230.274,140.064z M235.721,118.34
				c-0.101,8.385-7.216,17.933-17.26,18.227c-4.366,0.127-8.675-1.422-11.677-4.261c-2.867-2.699-4.435-6.331-4.543-10.499
				c-0.167-6.733,4.441-12.263,10.492-12.597c1.957-0.1,3.712,0.247,5.132,1.028l0.147,0.097c0.429,0.244,0.838,0.524,1.199,0.851
				c1.569,1.423,2.5,3.547,2.606,5.985c0.047,1.231-0.461,3.059-1.728,4.347c-1.054,1.082-2.681,1.56-4.262,1.574l-0.12,6.996
				c3.992-0.053,6.987-1.209,9.405-3.687c2.902-2.972,3.819-6.874,3.713-9.527c-0.182-4.325-1.93-8.186-4.905-10.871
				c-0.784-0.708-1.642-1.322-2.559-1.839l-23.912-15.329c-8.777-5.625-12.133-8.511-13.206-15.416l37.112,23.588
				C229.47,102.143,235.875,106.201,235.721,118.34z M205.443,140.053c-1.145,0.716-2.21,1.54-3.202,2.442v-4.863
				C203.233,138.534,204.299,139.346,205.443,140.053z M202.241,106.184v-5.957l4.864,3.112
				C205.331,104.014,203.701,104.989,202.241,106.184z M202.241,173.95c1.46,1.195,3.09,2.164,4.864,2.839l-4.864,3.119V173.95z
				 M184.199,24.082c4.924-0.096,9.487,1.473,12.723,4.482c2.747,2.562,4.262,5.839,4.382,9.48c0.128,3.647-1.152,7.146-3.503,9.6
				c-1.884,1.968-4.249,3.068-6.66,3.099c-0.041,0-0.095,0-0.147,0c-1.943,0-3.819-0.483-5.28-1.302l-0.476-0.305
				c-0.368-0.239-0.73-0.484-1.024-0.77c-1.12-1.104-1.669-2.504-1.676-4.292c-0.02-4.18,3.934-4.832,6.284-4.849l-0.047-6.995
				c-9.192,0.066-13.278,6.013-13.252,11.873c0.014,3.642,1.313,6.837,3.766,9.249c0.448,0.441,0.951,0.842,1.467,1.221v0.003
				l0.147,0.1c0.389,0.276,0.79,0.538,1.213,0.78l24.816,15.973c8.817,5.673,12.629,9.952,13.909,16.955L184.614,65.36
				c-8.783-5.562-17.078-10.815-16.763-23.592C168.039,33.845,175.228,24.395,184.199,24.082z M44.028,71.427l24.485-15.759
				c1.166-0.646,2.23-1.413,3.148-2.318c2.453-2.411,3.759-5.606,3.773-9.249c0.02-5.86-4.074-11.807-13.252-11.873l-0.054,6.995
				c2.358,0.018,6.301,0.669,6.285,4.856c0,1.782-0.553,3.182-1.675,4.286c-0.175,0.172-0.369,0.329-0.573,0.483l-0.834,0.54
				c-1.531,0.841-3.538,1.299-5.514,1.355c-2.412-0.03-4.776-1.127-6.663-3.094c-2.348-2.453-3.627-5.953-3.507-9.606
				c0.12-3.64,1.638-6.917,4.395-9.479c3.229-3.013,7.886-4.583,12.709-4.482c8.972,0.312,16.161,9.763,16.352,17.686
				c0.314,12.777-7.98,18.03-16.76,23.592L30.116,88.376C31.395,81.375,35.214,77.099,44.028,71.427z M15.228,118.34
				c-0.15-12.129,6.254-16.193,14.361-21.333L66.709,73.42c-1.072,6.906-4.425,9.792-13.198,15.415L29.566,104.18
				c-0.911,0.507-1.762,1.119-2.54,1.823c-2.975,2.692-4.716,6.553-4.897,10.871c-0.114,2.654,0.804,6.555,3.711,9.527
				c2.423,2.478,5.789,3.613,9.407,3.687l-0.12-6.996c-1.729,0.032-3.207-0.492-4.262-1.574c-1.266-1.289-1.782-3.116-1.728-4.347
				c0.107-2.438,1.025-4.562,2.606-5.985c0.389-0.354,0.817-0.658,1.28-0.911l0.037-0.024c1.424-0.785,3.186-1.135,5.152-1.042
				c6.06,0.333,10.666,5.864,10.495,12.597c-0.104,4.168-1.672,7.8-4.536,10.506c-3.001,2.832-7.235,4.405-11.678,4.254
				C22.454,136.276,15.335,126.726,15.228,118.34z M48.708,100.227v5.957c-1.458-1.195-3.085-2.163-4.864-2.841L48.708,100.227z
				 M48.708,137.636v4.859c-0.991-0.902-2.057-1.723-3.2-2.431C46.65,139.353,47.716,138.538,48.708,137.636z M15.228,161.788
				c0.107-8.377,7.195-17.9,17.212-18.229c0.137,0.007,0.271,0.007,0.408,0.01c4.308,0.004,8.402,1.497,11.323,4.245
				c2.864,2.706,4.432,6.339,4.536,10.506c0.17,6.736-4.436,12.27-10.495,12.594c-1.96,0.103-3.709-0.251-5.129-1.025l-0.127-0.084
				c-0.436-0.251-0.845-0.531-1.213-0.858c-1.574-1.423-2.499-3.553-2.606-5.985c-0.054-1.238,0.462-3.058,1.728-4.351
				c1.052-1.079,2.502-1.566,4.262-1.573l0.12-6.996c-3.631,0.004-6.984,1.206-9.407,3.68c-2.908,2.969-3.825,6.87-3.711,9.534
				c0.181,4.322,1.923,8.179,4.897,10.877c0.777,0.698,1.622,1.298,2.526,1.813l23.959,15.355
				c8.777,5.617,12.133,8.503,13.205,15.411L29.6,183.12C21.486,177.984,15.078,173.923,15.228,161.788z M48.708,173.95v5.952
				l-4.857-3.113C45.625,176.114,47.25,175.142,48.708,173.95z M66.75,256.046c-4.844,0.253-9.48-1.47-12.716-4.482
				c-2.751-2.561-4.269-5.845-4.389-9.474c-0.121-3.657,1.159-7.154,3.511-9.611c1.883-1.961,4.247-3.063,6.659-3.09
				c2.124,0.047,4,0.502,5.46,1.316l0.389,0.253c0.382,0.245,0.756,0.499,1.069,0.806c1.125,1.099,1.678,2.505,1.678,4.285
				c0.017,4.188-3.926,4.838-6.278,4.854l0.041,6.994c9.186-0.057,13.279-6.005,13.259-11.869c-0.014-3.647-1.32-6.846-3.779-9.25
				c-0.448-0.441-0.938-0.838-1.45-1.217l0.007-0.01l-0.238-0.149c-0.362-0.254-0.744-0.501-1.133-0.732l-24.812-15.965
				c-8.817-5.681-12.633-9.956-13.912-16.962l36.219,23.025c8.783,5.561,17.081,10.816,16.767,23.598
				C82.911,246.291,75.728,255.737,66.75,256.046z M116.349,255.146l-26.243-16.45c0-0.057,0.01-0.11,0.01-0.159
				c0.087-3.487-0.358-6.533-1.162-9.265l30.863,19.78C118.573,250.806,117.398,252.893,116.349,255.146z M125.622,280.868
				c-3.607,0-6.656-4.237-6.656-9.255c0-5.449,3.688-14.699,6.757-18.882c3.089,4.092,6.546,13.52,6.546,18.882
				C132.269,276.631,129.22,280.868,125.622,280.868z M160.843,238.699l-25.874,16.223c-1.039-2.253-2.225-4.34-3.505-6.077
				l30.531-19.569c-0.804,2.729-1.246,5.777-1.166,9.262C160.836,238.59,160.843,238.646,160.843,238.699z M125.904,244.084
				l-0.423-0.229l-0.395,0.254l-50.959-32.656c-0.402-13.438-4.405-18.087-16.823-26.042l-1.575-1.015V95.731l1.575-1.008
				c12.424-7.966,16.424-12.615,16.823-26.064c2.479-1.663,4.962-3.509,7.216-5.674h88.264c2.258,2.165,4.743,4.012,7.229,5.675
				c0.389,13.449,4.396,18.099,16.823,26.062l1.567,1.001v88.681l-1.567,1.005c-12.428,7.952-16.435,12.604-16.823,26.038
				L125.904,244.084z M206.932,208.705L182.075,224.7c-0.389,0.228-0.757,0.468-1.119,0.722l-0.201,0.13v0.01
				c-0.516,0.379-1.005,0.775-1.461,1.217c-2.451,2.404-3.758,5.603-3.771,9.247c-0.026,5.867,4.06,11.815,13.252,11.872
				l0.047-6.994c-2.351-0.017-6.304-0.667-6.284-4.854c0.007-1.78,0.556-3.187,1.682-4.285c0.302-0.297,0.677-0.55,1.059-0.799
				l0.409-0.267c1.467-0.821,3.35-1.31,5.3-1.31c0.053,0,0.1,0,0.154,0c2.411,0.026,4.776,1.129,6.66,3.096
				c2.351,2.454,3.631,5.951,3.503,9.596c-0.12,3.639-1.635,6.923-4.382,9.483c-3.242,3.013-7.933,4.709-12.723,4.482
				c-8.972-0.309-16.16-9.755-16.348-17.68c-0.315-12.781,7.979-18.037,16.77-23.598l36.22-23.019
				C219.561,198.749,215.749,203.031,206.932,208.705z M221.35,183.13l-37.111,23.583c1.073-6.908,4.43-9.794,13.213-15.421
				l23.885-15.312c0.925-0.521,1.796-1.135,2.586-1.847c2.976-2.695,4.724-6.555,4.905-10.88c0.106-2.662-0.811-6.562-3.713-9.531
				c-2.425-2.474-5.668-3.75-9.405-3.68l0.12,6.996c1.922-0.027,3.208,0.494,4.254,1.573c1.274,1.293,1.782,3.113,1.735,4.345
				c-0.106,2.438-1.037,4.567-2.606,5.991c-0.361,0.324-0.763,0.602-1.191,0.845l-0.155,0.097c-1.42,0.768-3.175,1.109-5.132,1.025
				c-6.057-0.324-10.659-5.857-10.492-12.594c0.108-4.167,1.676-7.794,4.543-10.502c2.874-2.708,6.827-4.259,11.108-4.252
				c0.027,0,0.047,0.003,0.074,0.003c0.18,0,0.368-0.003,0.549-0.01c10.017,0.329,17.104,9.852,17.205,18.229
				C235.875,173.927,229.464,177.991,221.35,183.13z"/>
			<path fill="#FFFFFF" d="M187.194,181.811l1.868-0.985v-81.2l-3.497-2.187c-7.818-4.846-15.209-9.426-15.744-23.915l-0.134-3.369
				H81.255l-0.12,3.369c-0.542,14.488-7.929,19.068-15.751,23.915l-3.488,2.187v81.2l1.866,0.985
				c10.833,5.708,15.463,12.502,16.522,24.245l0.154,1.743l45.04,27.77l45.04-27.77l0.161-1.743
				C171.73,194.313,176.36,187.519,187.194,181.811z M163.872,203.678l-38.394,23.664l-38.394-23.675
				c-1.521-12.398-7.062-20.64-18.17-27.012v-73.168l0.174-0.107c7.665-4.749,17.078-10.583,18.81-26.229h75.149
				c1.734,15.651,11.154,21.48,18.819,26.229l0.175,73.276C170.927,183.027,165.393,191.269,163.872,203.678z"/>
		</g>
	</g>
	<g>
		<path fill="#FFFFFF" d="M40.835,362.64h5.672v1.475h-3.95v2.477h3.189v1.479h-3.189v2.542h4.164v1.475h-5.886V362.64z"/>
		<path fill="#FFFFFF" d="M51.069,362.64h3.232c2.921,0,4.831,1.729,4.831,4.712c0,2.979-1.91,4.734-4.831,4.734h-3.232V362.64z
			 M54.208,370.611c1.919,0,3.149-1.133,3.149-3.26c0-2.105-1.253-3.237-3.149-3.237h-1.417v6.497H54.208z"/>
		<path fill="#FFFFFF" d="M63.454,362.64h1.722v6.042c0,1.279,0.824,1.995,2.093,1.995s2.094-0.716,2.094-1.995v-6.042h1.722v6.056
			c0,2.112-1.521,3.552-3.802,3.552c-2.295,0-3.829-1.439-3.829-3.552V362.64z"/>
		<path fill="#FFFFFF" d="M80.25,362.479c1.24,0,2.576,0.4,3.498,1.293l-0.827,1.277c-0.667-0.571-1.668-1-2.59-1
			c-2.083,0-3.175,1.506-3.175,3.25c0,1.769,1.132,3.378,3.189,3.378c1.015,0,2.03-0.493,2.75-1.198l0.908,1.239
			c-0.817,0.824-2.03,1.529-3.725,1.529c-2.975,0-4.898-2.145-4.898-4.922C75.379,364.583,77.396,362.479,80.25,362.479z"/>
		<path fill="#FFFFFF" d="M90.417,362.64h1.815l3.323,9.446h-1.762l-0.814-2.419h-3.323l-0.801,2.419h-1.761L90.417,362.64z
			 M92.551,368.268l-0.837-2.528c-0.161-0.531-0.375-1.464-0.375-1.464h-0.027c0,0-0.214,0.933-0.375,1.464l-0.851,2.528H92.551z"/>
		<path fill="#FFFFFF" d="M100.839,364.114H97.73v-1.475h7.926v1.475h-3.108v7.972h-1.709V364.114z"/>
		<path fill="#FFFFFF" d="M109.646,362.64h1.722v9.446h-1.722V362.64z"/>
		<path fill="#FFFFFF" d="M120.661,362.479c2.871,0,4.901,2.118,4.901,4.82c0,2.778-2.03,4.948-4.901,4.948
			c-2.871,0-4.898-2.17-4.898-4.948C115.763,364.597,117.79,362.479,120.661,362.479z M120.661,370.677
			c1.815,0,3.126-1.465,3.126-3.378c0-1.837-1.311-3.25-3.126-3.25c-1.816,0-3.125,1.413-3.125,3.25
			C117.536,369.212,118.845,370.677,120.661,370.677z"/>
		<path fill="#FFFFFF" d="M129.943,362.64h1.722l3.592,5.457c0.348,0.558,0.79,1.462,0.79,1.462h0.027c0,0-0.095-0.904-0.095-1.462
			v-5.457h1.709v9.446h-1.709l-3.591-5.442c-0.362-0.559-0.791-1.462-0.791-1.462h-0.026c0,0,0.094,0.903,0.094,1.462v5.442h-1.722
			V362.64z"/>
		<path fill="#FFFFFF" d="M148.896,369.667c0.563,0.503,1.468,0.998,2.353,0.998c0.851,0,1.387-0.44,1.387-1.079
			c0-1.797-4.422-1.423-4.422-4.365c0-1.662,1.394-2.742,3.229-2.742c0.991,0,2.029,0.334,2.78,1.013l-0.764,1.396
			c-0.516-0.466-1.333-0.825-2.084-0.825c-0.864,0-1.44,0.428-1.44,1.078c0,1.757,4.422,1.307,4.422,4.312
			c0,1.528-1.125,2.794-3.148,2.794c-1.18,0-2.392-0.441-3.25-1.293L148.896,369.667z"/>
		<path fill="#FFFFFF" d="M158.732,362.64h5.675v1.475h-3.953v2.477h3.189v1.479h-3.189v2.542h4.168v1.475h-5.89V362.64z"/>
		<path fill="#FFFFFF" d="M168.97,362.64h3.123c0.938,0,1.386,0.081,1.788,0.253c0.979,0.397,1.602,1.304,1.602,2.583
			c0,1.115-0.583,2.18-1.588,2.58v0.027c0,0,0.12,0.146,0.308,0.492l1.95,3.511h-1.937l-1.869-3.524h-1.654v3.524h-1.723V362.64z
			 M172.239,367.07c0.925,0,1.494-0.569,1.494-1.502c0-0.603-0.228-1.078-0.743-1.293c-0.242-0.106-0.523-0.161-1.045-0.161h-1.253
			v2.956H172.239z"/>
		<path fill="#FFFFFF" d="M178.927,362.64h1.855l2.076,6.161c0.175,0.544,0.362,1.383,0.362,1.383h0.026
			c0,0,0.188-0.839,0.362-1.383l2.11-6.161h1.829l-3.417,9.446h-1.789L178.927,362.64z"/>
		<path fill="#FFFFFF" d="M191.415,362.64h1.722v9.446h-1.722V362.64z"/>
		<path fill="#FFFFFF" d="M202.415,362.479c1.24,0,2.58,0.4,3.498,1.293l-0.831,1.277c-0.663-0.571-1.668-1-2.585-1
			c-2.084,0-3.176,1.506-3.176,3.25c0,1.769,1.131,3.378,3.188,3.378c1.012,0,2.029-0.493,2.747-1.198l0.91,1.239
			c-0.816,0.824-2.029,1.529-3.725,1.529c-2.974,0-4.897-2.145-4.897-4.922C197.545,364.583,199.562,362.479,202.415,362.479z"/>
		<path fill="#FFFFFF" d="M210.303,362.64h5.668v1.475h-3.947v2.477h3.188v1.479h-3.188v2.542h4.16v1.475h-5.881V362.64z"/>
	</g>
</g>
</svg>
