<?xml version="1.0" encoding="utf-8"?>
<!-- Generator: Adobe Illustrator 15.0.0, SVG Export Plug-In . SVG Version: 6.00 Build 0)  -->
<!DOCTYPE svg PUBLIC "-//W3C//DTD SVG 1.1//EN" "http://www.w3.org/Graphics/SVG/1.1/DTD/svg11.dtd">
<svg version="1.1" id="Layer_1" xmlns="http://www.w3.org/2000/svg" xmlns:xlink="http://www.w3.org/1999/xlink" x="0px" y="0px"
	 width="33px" height="33px" viewBox="0 0 33 33" enable-background="new 0 0 33 33" xml:space="preserve">
<g>
	<path fill="#FFFFFF" d="M17.068,9.585c-0.073-0.198-0.259-0.342-0.483-0.342c-0.224,0-0.41,0.144-0.482,0.342l-5.047,4.542
		c-0.213,0.191-0.23,0.519-0.039,0.732c0.103,0.114,0.243,0.171,0.385,0.171c0.124,0,0.248-0.043,0.347-0.133l4.318-3.885v12.83
		c0,0.287,0.232,0.52,0.519,0.52s0.518-0.232,0.518-0.52v-12.83l4.318,3.886c0.1,0.089,0.223,0.133,0.348,0.133
		c0.141,0,0.283-0.058,0.385-0.171c0.191-0.213,0.174-0.541-0.039-0.732L17.068,9.585z"/>
	<path fill="#FFFFFF" d="M16.5,0C7.401,0,0,7.402,0,16.5C0,25.598,7.401,33,16.5,33S33,25.598,33,16.5C33,7.402,25.598,0,16.5,0z
		 M16.5,31.963c-8.526,0-15.463-6.938-15.463-15.463c0-8.526,6.937-15.463,15.463-15.463c8.526,0,15.463,6.937,15.463,15.463
		C31.963,25.025,25.025,31.963,16.5,31.963z"/>
</g>
</svg>
