<?xml version="1.0" encoding="utf-8"?>
<!-- Generator: Adobe Illustrator 15.0.0, SVG Export Plug-In . SVG Version: 6.00 Build 0)  -->
<!DOCTYPE svg PUBLIC "-//W3C//DTD SVG 1.1//EN" "http://www.w3.org/Graphics/SVG/1.1/DTD/svg11.dtd">
<svg version="1.1" id="Layer_1" xmlns="http://www.w3.org/2000/svg" xmlns:xlink="http://www.w3.org/1999/xlink" x="0px" y="0px"
	 width="27px" height="25px" viewBox="0 0 27 25" enable-background="new 0 0 27 25" xml:space="preserve">
<path fill-rule="evenodd" clip-rule="evenodd" fill="#DADADA" d="M10.996,7.567c1.533-0.223,3.354-0.263,4.876,0
	c1.529-2.594,3.706-5.63,6.598-6.789c1.866-0.748,2.85,0.41,3.061,2.199c0.352,2.961-0.622,6.219-1.435,8.223
	c1.06,1.523,2.095,3.069,2.773,4.973c-4.108,0.864-7.091,2.853-9.85,5.067c0.301,5.005-7.475,4.984-7.171,0.096
	c-2.65-2.354-5.75-4.259-9.848-5.163c0.7-1.852,1.631-3.468,2.773-4.877c-0.852-2.229-2.9-9.201-0.191-10.709
	c0.314-0.175,1.285-0.022,1.816,0.191C7.284,1.936,9.463,4.967,10.996,7.567z M23.81,1.544c-0.063,0-0.13,0-0.193,0
	c-2.154,0.709-4.812,3.224-5.927,4.972c-0.479,0.749-0.567,1.711-1.339,2.199c-1.5-0.251-4.418-0.213-5.929,0
	C8.613,5.712,6.805,2.707,3.059,1.639c-1.5,2.331-0.191,6.447,0.479,8.701C4.177,10.359,4.476,9.25,5.45,9.289
	c0.149,0.138,0.333,0.241,0.382,0.478c-1.557,1.759-3.419,3.209-4.303,5.641c3.263,0.914,5.816,2.536,8.224,4.304
	c-0.167-1.823,0.273-3.228-0.67-4.398c-0.308-0.382-2.648-1.172-2.486-1.816c0.221-0.874,2.192,0.158,2.391,0.286
	c0.844,0.549,1.705,1.977,1.816,3.539c0.233,3.25-0.441,6.113,2.104,6.598c0.593-1.572-0.9-1.949-0.574-2.964
	c0.243-0.756,1.994-0.786,2.2,0.096c0.23,0.989-1.199,1.474-0.574,2.868c3.323-0.438,1.269-6.095,2.581-8.702
	c0.227-0.45,0.93-1.118,1.435-1.435c0.224-0.139,2.188-1.249,2.295-0.19c0.065,0.64-0.824,0.602-1.338,0.86
	c-1.783,0.897-1.983,2.822-1.722,5.259c2.265-1.911,5.055-3.296,8.128-4.398c-0.585-1.129-1.15-2.143-1.913-3.061
	c-0.754-0.905-1.839-1.49-2.391-2.581c0.79-1.101,1.691,0.714,2.295,0.669C24.05,8.029,25.241,3.952,23.81,1.544z"/>
</svg>
